<?xml version="1.0" standalone="no"?>
<!DOCTYPE svg PUBLIC "-//W3C//DTD SVG 1.1//EN" "http://www.w3.org/Graphics/SVG/1.1/DTD/svg11.dtd" >
<svg xmlns="http://www.w3.org/2000/svg">
<metadata>
This is a custom SVG webfont generated by Font Squirrel.
Copyright   : Digitized data C 2004 Agfa Monotype Corporation All rights reserved GE Inspira is a trademark of the General Electric Company
</metadata>
<defs>
<font id="GEInspiraRegular" horiz-adv-x="1085" >
<font-face units-per-em="2048" ascent="1638" descent="-410" />
<missing-glyph horiz-adv-x="475" />
<glyph unicode=" "  horiz-adv-x="475" />
<glyph unicode="&#x09;" horiz-adv-x="475" />
<glyph unicode="&#xa0;" horiz-adv-x="475" />
<glyph unicode="!" horiz-adv-x="514" d="M164 72q0 39 26.5 66.5t65.5 27.5t66.5 -27.5t27.5 -66.5t-27.5 -65.5t-66.5 -26.5t-65.5 26.5t-26.5 65.5zM195 375v966q0 63 63.5 63.5t63.5 -63.5v-966q0 -63 -63.5 -63t-63.5 63z" />
<glyph unicode="&#x22;" horiz-adv-x="638" d="M113 1040v303q0 61 61 62q63 0 64 -62v-303q0 -63 -64 -63q-61 0 -61 63zM401 1040v303q0 61 62 62q63 0 63 -62v-303q0 -63 -63 -63q-62 0 -62 63z" />
<glyph unicode="#" horiz-adv-x="1196" d="M41 440.5q8 55.5 65 55.5h191l63 401h-192q-55 0 -47 55.5t65 55.5h193l53 340q8 57 68 57q57 0 49 -57l-53 -340h303l53 340q8 57 68 57q57 0 49 -57l-54 -340h195q53 0 45 -54q-8 -57 -63 -57h-193l-63 -401h194q53 0 45 -54q-8 -57 -63 -57h-195l-53 -332 q-10 -59 -70 -59q-55 0 -47 59l53 332h-303l-53 -332q-10 -59 -70 -59q-55 0 -47 59l54 332h-193q-55 0 -47 55.5zM414 496h305l63 401h-305z" />
<glyph unicode="$" d="M117 178q0 25 17.5 44.5t41.5 19.5q20 0 51 -23q137 -100 269 -115v551q-86 25 -141.5 49.5t-113 67.5t-85 107.5t-27.5 154.5q0 158 104.5 259.5t262.5 117.5v111q0 51 49 51q51 0 51 -51v-111q195 -14 317 -133q27 -27 27 -53.5t-17.5 -47t-45.5 -20.5q-18 0 -56 31 q-102 82 -225 98v-522q180 -55 276.5 -141t96.5 -250q0 -168 -102.5 -272.5t-270.5 -118.5v-127q0 -51 -51 -52q-49 0 -49 52v127q-201 16 -353 141q-26 20 -26 55zM258 1040.5q0 -102.5 63.5 -156t174.5 -89.5v491q-115 -12 -176.5 -77.5t-61.5 -168zM596 104 q117 14 180.5 87t63.5 182q0 102 -64.5 158.5t-179.5 93.5v-521z" />
<glyph unicode="%" horiz-adv-x="1720" d="M121 1006q0 240 121 342q78 66 178 65.5t178 -65.5q121 -102 121 -342q0 -195 -94 -314q-82 -94 -205 -94t-205 94q-94 119 -94 314zM236 1006q0 -137 53 -220q45 -74 131 -73.5t131 73.5q53 78 53 220q0 143 -51 225q-45 70 -133 69q-86 0 -133 -69q-51 -86 -51 -225z M348 27q0 14 21 47l895 1306q25 33 47 33q20 0 38.5 -15.5t18.5 -31.5q0 -14 -20 -47l-895 -1307q-25 -33 -47 -32q-20 0 -39 15.5t-19 31.5zM1001 387q0 240 121 342q78 66 178.5 66t178.5 -66q121 -102 120 -342q0 -195 -94 -313q-82 -94 -204.5 -94t-204.5 94 q-95 118 -95 313zM1116 387q0 -137 53 -219q45 -74 131 -74t132 74q53 78 53 219q0 143 -51 225q-45 70 -134 70q-86 0 -133 -70q-51 -86 -51 -225z" />
<glyph unicode="&#x26;" horiz-adv-x="1271" d="M102 385q0 123 63.5 218t182.5 147q-78 72 -116.5 144.5t-38.5 170.5q0 152 106.5 250t265.5 98q219 0 340 -117q37 -33 37 -61q0 -23 -20.5 -45.5t-43 -22.5t-47.5 23q-117 102 -256 102q-113 0 -184.5 -59t-71.5 -168q0 -80 41 -138.5t136 -146.5q43 -43 444 -387 q53 152 53 336q0 63 64 64q59 0 59 -64q0 -238 -82 -420l230 -207q23 -23 22.5 -43t-21 -42.5t-43 -22.5t-55.5 24q-31 25 -102.5 91.5t-95.5 87.5q-158 -217 -432 -217q-199 0 -317 117.5t-118 287.5zM229 387q0 -121 83 -204t229 -83q223 0 340 174q-104 92 -257 227.5 t-184 162.5q-96 -27 -153.5 -101t-57.5 -176z" />
<glyph unicode="'" horiz-adv-x="350" d="M113 1040v303q0 61 61 62q63 0 64 -62v-303q0 -63 -64 -63q-61 0 -61 63z" />
<glyph unicode="(" horiz-adv-x="434" d="M92 676q0 348 105 713q18 70 37.5 98.5t50.5 28.5q53 0 57 -43q0 -18 -4 -29q-4 -14 -12 -35q-51 -143 -81 -351t-30 -380t29.5 -381t81.5 -352q10 -23 12 -37q4 -10 4 -27q-4 -43 -57 -43q-31 0 -50.5 29t-37.5 98q-105 365 -105 711z" />
<glyph unicode=")" horiz-adv-x="434" d="M92 -119q0 16 4 27q2 14 13 37q51 143 80.5 352t29.5 381t-29.5 380t-80.5 351q-8 20 -13 35q-4 10 -4 29q4 43 58 43q31 0 50 -29t38 -98q104 -365 104 -713q0 -346 -104 -711q-18 -70 -38 -98.5t-50 -28.5q-54 0 -58 43z" />
<glyph unicode="*" horiz-adv-x="884" d="M82 1137q0 6 4 22q16 41 49 41q12 0 27 -6l231 -86l-6 240q-4 57 57 57q59 0 60 -57l-6 -240l227 86q16 6 27 6q35 0 47 -39q4 -10 4 -24q0 -37 -39 -50l-234 -77l146 -195q14 -18 14 -33q0 -27 -26 -45q-25 -14 -41 -14q-20 0 -41 27l-140 202l-139 -202 q-20 -27 -41 -27q-16 0 -39 12q-29 18 -28 45q0 14 14 33l147 197l-235 77q-39 15 -39 50z" />
<glyph unicode="+" d="M57 518q0 57 66 57h360v365q0 63 59.5 63.5t59.5 -63.5v-365h361q66 0 65.5 -57t-65.5 -57h-361v-365q0 -63 -59.5 -63t-59.5 63v365h-360q-66 0 -66 57z" />
<glyph unicode="," horiz-adv-x="405" d="M117 -176q0 18 19.5 70.5t19.5 103.5q0 27 -4.5 58.5t-4.5 49.5q0 74 64 74q82 0 82 -151q0 -104 -42 -179t-85 -75q-49 0 -49 49z" />
<glyph unicode="-" horiz-adv-x="737" d="M90 548.5q0 63.5 64 63.5h430q63 0 63 -63.5t-63 -63.5h-430q-64 0 -64 63.5z" />
<glyph unicode="." horiz-adv-x="405" d="M102 78q0 43 30 71.5t71 28.5t70.5 -29.5t29.5 -70.5t-29.5 -69.5t-70.5 -28.5t-71 28.5t-30 69.5z" />
<glyph unicode="/" horiz-adv-x="720" d="M29 -31q0 14 6 31l538 1581q16 45 52 45q10 0 26 -6q45 -14 45 -53q0 -14 -4 -25l-538 -1583q-14 -43 -54 -43q-16 0 -26 4q-45 16 -45 49z" />
<glyph unicode="0" d="M90 696q0 426 186 607q113 111 267 110q156 0 266 -110q186 -180 186 -607q0 -362 -143 -555q-123 -162 -309.5 -161.5t-309.5 161.5q-143 193 -143 555zM217 696q0 -266 88 -432q88 -164 237.5 -164t237.5 164q88 162 88 432q0 276 -86 437q-88 160 -239 159 q-156 0 -240 -159q-86 -161 -86 -437z" />
<glyph unicode="1" d="M203 1178q0 33 45 59l270 154q41 23 74 22q76 0 76 -96v-1198h237q66 0 66 -59.5t-66 -59.5h-622q-66 0 -66 59.5t66 59.5h258v1147l-219 -125q-43 -27 -68 -27q-23 0 -37 19.5t-14 44.5z" />
<glyph unicode="2" d="M150 147q0 272 401 553q139 96 202.5 171t63.5 180q0 106 -64.5 173.5t-189.5 67.5q-129 0 -252 -90q-47 -35 -69.5 -35t-39 18.5t-16.5 43.5q0 31 35 59q154 125 342 125q186 0 283.5 -99.5t97.5 -256.5q0 -139 -76.5 -237.5t-249.5 -221.5q-342 -246 -342 -440 q0 -39 39 -39h541q63 0 63.5 -59.5t-63.5 -59.5h-557q-78 0 -113.5 42t-35.5 105z" />
<glyph unicode="3" d="M106 141q0 27 17.5 46.5t44.5 19.5q16 0 49 -21q137 -86 252 -86q150 0 236 92.5t86 221.5q0 303 -345 303q-53 0 -53 47q0 27 43 82l301 377q10 14 11 26q0 23 -23 23h-537q-61 0 -61 57q0 63 61 64h551q143 0 144 -117q0 -59 -86 -172l-226 -283q346 -49 347 -403 q0 -178 -121 -308t-330 -130q-201 0 -340 116q-21 16 -21 45z" />
<glyph unicode="4" d="M68 428q0 55 32 121l400 799q27 51 59 51q12 0 19 -2q51 -12 51 -58q0 -12 -6 -26l-414 -828q-10 -20 -10 -32q0 -25 41 -25h491v559q0 63 63.5 63.5t63.5 -63.5v-559h98q63 0 63.5 -59.5t-63.5 -59.5h-98v-252q0 -63 -63.5 -63t-63.5 63v252h-512q-151 0 -151 119z" />
<glyph unicode="5" d="M141 141.5q0 26.5 19.5 46t46.5 19.5q16 0 45 -21q102 -86 250 -86q137 0 226 89.5t89 222.5q0 158 -86 240.5t-233 82.5q-84 0 -176 -30q-47 -14 -68 -15q-68 0 -68 66q0 35 9 100l38 408q10 129 134 129h483q63 0 63 -64q0 -57 -63 -57h-467q-23 0 -23 -21l-43 -428 q94 33 187 33q203 0 321.5 -116.5t118.5 -327.5q0 -184 -126 -308t-316 -124q-205 0 -336 114q-25 21 -25 47.5z" />
<glyph unicode="6" d="M121 559q0 854 584 854q76 0 147 -20q45 -14 45 -58q0 -27 -16.5 -47t-40.5 -20q-10 0 -17 2q-72 23 -139 22q-195 0 -312.5 -164.5t-119.5 -468.5q43 96 135 151.5t199 55.5q186 0 293.5 -118.5t107.5 -307.5q0 -193 -116.5 -326.5t-311.5 -133.5q-207 0 -322.5 143 t-115.5 436zM264 446q0 -141 72 -243.5t223 -102.5q141 0 221 98.5t80 239.5q0 143 -80 225t-207 82q-137 0 -223 -87t-86 -212z" />
<glyph unicode="7" d="M154 1331q0 61 63 62h629q59 0 92 -33t33 -84q0 -63 -62 -152q-166 -240 -297 -544t-151 -531q-6 -55 -58 -55q-70 0 -69 61v4q6 207 171 576t310 567q16 27 16 39q0 31 -38 31h-576q-63 0 -63 59z" />
<glyph unicode="8" d="M94 381q0 123 68.5 220t193.5 142q-96 43 -151 124t-55 184q0 160 109.5 261t279.5 101q174 0 285.5 -99.5t111.5 -258.5q0 -102 -55.5 -183t-153.5 -127q125 -45 193.5 -139t68.5 -217q0 -182 -127 -295.5t-323.5 -113.5t-320.5 109.5t-124 291.5zM221 391 q0 -137 84 -214t234 -77q154 0 238.5 80t84.5 219q0 121 -86 201t-237.5 80t-234.5 -85t-83 -204zM274 1047q0 -100 68 -171t197 -71t198.5 69.5t69.5 172.5q0 111 -75 178t-193 67q-117 0 -191 -67t-74 -178z" />
<glyph unicode="9" d="M98 954q0 199 116 329t312 130q205 0 322 -140t117 -439q0 -854 -584 -854q-88 0 -148 18q-43 12 -43 57q0 29 16.5 48.5t39.5 19.5q12 0 18 -2q66 -20 137 -21q195 0 314 166t119 467q-102 -207 -336 -207q-184 0 -292 120t-108 308zM225 954q0 -135 75 -221t210 -86 q147 0 228 93.5t81 205.5q0 147 -75.5 246.5t-217.5 99.5q-143 0 -222 -96.5t-79 -241.5z" />
<glyph unicode=":" horiz-adv-x="405" d="M111 72q0 39 26.5 66.5t65.5 27.5t66.5 -27.5t27.5 -66.5t-27.5 -65.5t-66.5 -26.5t-65.5 26.5t-26.5 65.5zM111 889q0 39 26.5 65.5t65.5 26.5q41 0 67.5 -26.5t26.5 -65.5t-26.5 -65.5t-67.5 -26.5q-39 0 -65.5 26.5t-26.5 65.5z" />
<glyph unicode=";" horiz-adv-x="405" d="M111 889q0 39 27.5 65.5t66.5 26.5q41 0 66.5 -25.5t25.5 -66.5t-25.5 -66.5t-66.5 -25.5q-39 0 -66.5 26.5t-27.5 65.5zM117 -176q0 18 19.5 70.5t19.5 103.5q0 27 -4.5 58.5t-4.5 49.5q0 74 64 74q82 0 82 -151q0 -104 -42 -179t-85 -75q-49 0 -49 49z" />
<glyph unicode="&#x3c;" d="M90 518q0 37 43 57l766 414q33 14 41 15q27 0 43 -31q12 -18 12 -33q0 -29 -39 -51l-692 -371l692 -371q39 -23 39 -49q0 -12 -12 -35q-18 -31 -41 -30q-14 0 -43 14l-766 414q-43 26 -43 57z" />
<glyph unicode="=" d="M57 327.5q0 57.5 66 57.5h840q66 0 65.5 -57.5t-65.5 -57.5h-840q-66 0 -66 57.5zM57 696.5q0 57.5 66 57.5h840q66 0 65.5 -57.5t-65.5 -57.5h-840q-66 0 -66 57.5z" />
<glyph unicode="&#x3e;" d="M90 96q0 27 39 49l692 375l-692 375q-39 23 -39 51q0 14 12 33q16 31 43 31q8 0 41 -15l766 -417q43 -20 43 -58q0 -31 -43 -57l-766 -418q-29 -14 -43 -14q-23 0 -41 30q-12 21 -12 35z" />
<glyph unicode="?" horiz-adv-x="903" d="M86 1214q0 33 35 68q131 131 338 131q172 0 274.5 -94t102.5 -240q0 -113 -59.5 -195.5t-164.5 -160.5q-86 -66 -120.5 -124t-34.5 -140v-109q0 -63 -63.5 -63t-63.5 63v119q0 205 209 348q80 55 123 114.5t43 143.5q0 94 -68 154.5t-182 60.5q-139 0 -246 -96 q-41 -37 -66 -37q-23 0 -40 16t-17 41zM301 72q0 39 26.5 66.5t65.5 27.5q41 0 67.5 -27.5t26.5 -66.5t-27.5 -65.5t-66.5 -26.5t-65.5 26.5t-26.5 65.5z" />
<glyph unicode="@" horiz-adv-x="1681" d="M119 653q0 332 203.5 546t531.5 214q319 0 514 -188.5t195 -489.5q0 -195 -86 -335t-256 -140q-63 0 -108.5 38t-61.5 99q-63 -137 -248 -137q-147 0 -231.5 108.5t-84.5 295.5q0 172 100.5 285.5t254.5 113.5q66 0 118 -27.5t74 -60.5v29q0 53 53 53q55 0 56 -53v-508 q0 -57 26.5 -96.5t77.5 -39.5q84 0 143.5 95.5t59.5 281.5q0 256 -164 414t-434 158q-272 0 -445.5 -178.5t-173.5 -479.5q0 -287 165 -454.5t421 -167.5q186 0 336 88q29 16 45 16q20 0 34.5 -16.5t14.5 -38.5q0 -29 -43 -55q-174 -100 -393 -101q-307 0 -500.5 203.5 t-193.5 527.5zM602 653q0 -293 225 -293q90 0 148.5 61.5t58.5 153.5v179q0 96 -51 152.5t-141 56.5q-111 0 -175.5 -88.5t-64.5 -221.5z" />
<glyph unicode="A" horiz-adv-x="1171" d="M49 51q0 14 6 39q20 86 131 442q150 465 346 834q18 33 58 33h14q41 0 55 -33q199 -379 334 -834q96 -324 125 -452q4 -16 4 -31q0 -55 -71 -55q-43 0 -56 49q-16 78 -100 367h-612q-88 -289 -107 -367q-12 -49 -53 -49q-74 0 -74 57zM322 535h536q-115 379 -262 679 q-151 -302 -274 -679z" />
<glyph unicode="B" horiz-adv-x="1167" d="M184 135v1102q0 156 150 156h270q412 0 412 -361q0 -100 -58.5 -185t-156.5 -110q133 -25 203.5 -113.5t70.5 -224.5q0 -190 -119.5 -294.5t-316.5 -104.5h-317q-66 0 -102 36t-36 99zM313 152q0 -31 27 -31h307q139 0 219 70.5t80 205.5q0 268 -330 269h-303v-514z M313 793h310q115 0 189.5 63.5t74.5 167.5q0 123 -67.5 182.5t-221.5 59.5h-250q-35 0 -35 -39v-434z" />
<glyph unicode="C" horiz-adv-x="1189" d="M92 696q0 322 170 519.5t440 197.5q238 0 367 -117q33 -31 33 -57q0 -25 -18.5 -44t-39.5 -19q-18 0 -63 30q-121 86 -279 86q-221 0 -351 -164.5t-130 -431.5q0 -283 128 -439.5t333 -156.5q178 0 336 129q27 23 51 23q23 0 37 -18.5t14 -40.5q0 -27 -35 -58 q-182 -156 -405 -155q-276 0 -432 196t-156 520z" />
<glyph unicode="D" horiz-adv-x="1310" d="M184 135v1122q0 63 36 99.5t102 36.5h258q303 0 471 -180.5t168 -477.5q0 -326 -169 -530.5t-470 -204.5h-258q-66 0 -102 36t-36 99zM313 158q0 -31 27 -31h246q250 0 377 165t127 433q0 250 -126 395.5t-378 145.5h-246q-27 0 -27 -31v-1077z" />
<glyph unicode="E" horiz-adv-x="1032" d="M184 135v1102q0 156 150 156h551q66 0 65.5 -63.5t-65.5 -63.5h-537q-35 0 -35 -39v-439h506q63 0 64 -65q0 -61 -64 -61h-506v-504q0 -31 27 -31h545q66 0 65 -61q0 -66 -65 -66h-563q-66 0 -102 36t-36 99z" />
<glyph unicode="F" horiz-adv-x="1003" d="M184 57v1180q0 156 150 156h551q66 0 65.5 -63.5t-65.5 -63.5h-539q-33 0 -33 -43v-435h486q63 0 63 -63t-63 -63h-486v-603q0 -66 -61 -65q-68 0 -68 63z" />
<glyph unicode="G" horiz-adv-x="1318" d="M92 688q0 150 38 273.5t101.5 205.5t147.5 138.5t172 82t178 25.5q211 0 377 -117q33 -25 33 -55q0 -25 -19.5 -46t-44.5 -21q-14 0 -55 26q-139 92 -295 92q-209 0 -356.5 -156.5t-147.5 -447.5q0 -266 132 -427t364 -161q152 0 287 66q33 16 32 70v366h-309 q-63 0 -63 63.5t63 63.5h377q61 0 61 -63v-449q0 -94 -63 -135q-158 -102 -391 -102q-291 0 -455 194.5t-164 513.5z" />
<glyph unicode="H" horiz-adv-x="1349" d="M184 59v1276q0 63 64 64q66 0 65 -64v-559h723v559q0 63 64 64q66 0 65 -64v-1276q0 -66 -65 -65q-63 0 -64 65v590h-723v-590q0 -66 -65 -65q-64 -1 -64 65z" />
<glyph unicode="I" horiz-adv-x="497" d="M184 59v1276q0 63 64 64q66 0 65 -64v-1276q0 -66 -65 -65q-64 -1 -64 65z" />
<glyph unicode="J" horiz-adv-x="905" d="M43 121q0 27 17.5 46t39.5 19q16 0 43 -14q115 -70 217 -70q276 0 277 373v860q0 63 63 64q66 0 66 -64v-862q0 -494 -401 -493q-190 0 -295 90q-27 20 -27 51z" />
<glyph unicode="K" horiz-adv-x="1157" d="M184 57v1278q0 63 64 64q66 0 65 -64v-620q369 270 619 655q20 31 49 31q27 0 48.5 -17.5t21.5 -42.5q0 -18 -17 -43q-197 -295 -465 -526q315 -322 531 -670q18 -29 18 -49q0 -23 -21.5 -42t-47.5 -19q-31 0 -54 35q-254 393 -522 659l-160 -123v-506q0 -63 -65 -63 q-64 0 -64 63z" />
<glyph unicode="L" horiz-adv-x="954" d="M184 135v1200q0 63 66 64q63 0 63 -64v-1175q0 -33 29 -33h518q66 0 66 -61q0 -66 -66 -66h-536q-66 0 -103 36t-37 99z" />
<glyph unicode="M" horiz-adv-x="1564" d="M184 57v1231q0 47 29 79t76 32q68 0 98 -56l395 -733l396 733q31 55 98 56q47 0 75.5 -32t28.5 -79v-1231q0 -63 -63 -63q-57 0 -57 63v1198l-402 -745q-29 -53 -76 -53q-51 0 -77 51q-336 614 -400 747v-1198q0 -63 -59 -63q-62 0 -62 63z" />
<glyph unicode="N" horiz-adv-x="1359" d="M184 57v1231q0 53 30 82t77 29q66 0 96 -56l668 -1189v1181q0 63 59 64q61 0 62 -64v-1239q0 -43 -28 -72.5t-79 -29.5q-61 0 -94 57l-670 1192v-1186q0 -63 -59 -63q-62 0 -62 63z" />
<glyph unicode="O" horiz-adv-x="1355" d="M92 696q0 317 158 517t430 200q188 0 323.5 -101.5t198 -260t62.5 -355.5q0 -193 -61.5 -351.5t-198 -261.5t-324.5 -103q-190 0 -326.5 103t-199 261.5t-62.5 351.5zM221 696q0 -246 119 -420t338 -174q223 0 340 175.5t117 419t-117 418.5t-340 175t-340 -175 t-117 -419z" />
<glyph unicode="P" horiz-adv-x="1083" d="M184 57v1180q0 156 150 156h262q207 0 318.5 -114t111.5 -316q0 -184 -121 -302t-323 -118h-269v-486q0 -63 -63 -63q-66 0 -66 63zM313 670h279q141 0 223 80.5t82 212.5q0 303 -303 303h-246q-35 0 -35 -39v-557z" />
<glyph unicode="Q" horiz-adv-x="1355" d="M92 696q0 309 162 513t426 204q188 0 323.5 -101.5t198 -260t62.5 -355.5q0 -281 -134.5 -484.5t-384.5 -227.5q2 -88 47.5 -123t129.5 -35q66 0 65 -62q0 -59 -65 -59q-137 0 -221.5 68.5t-84.5 210.5q-252 23 -388 227t-136 485zM221 696q0 -246 119 -420t338 -174 q223 0 340 175.5t117 419t-117 418.5t-340 175t-340 -175t-117 -419z" />
<glyph unicode="R" horiz-adv-x="1138" d="M184 57v1180q0 156 150 156h239q442 0 443 -373q0 -152 -99.5 -248t-232.5 -110q111 -45 190.5 -172.5t188.5 -395.5q10 -25 10 -39q0 -29 -21.5 -46t-56 -17t-47.5 31q-131 344 -241.5 474t-249.5 130h-144v-570q0 -63 -63 -63q-66 0 -66 63zM313 754h248 q150 0 238 68.5t88 199.5q0 127 -76 185.5t-240 58.5h-223q-35 0 -35 -39v-473z" />
<glyph unicode="S" horiz-adv-x="1042" d="M84 176q0 25 19.5 45.5t41.5 20.5q25 0 52 -23q143 -117 311 -117q131 0 213 71t82 200q0 53 -19.5 95t-44 67.5t-76 50t-82 36t-94.5 29.5q-88 25 -145 49.5t-115.5 67.5t-86 108.5t-27.5 157.5q0 172 120.5 275.5t294.5 103.5q205 0 357 -133q29 -25 28 -57 q0 -25 -18 -44.5t-45 -19.5q-18 0 -57 31q-129 100 -265 100q-133 0 -209.5 -70.5t-76.5 -185.5q0 -63 22.5 -107t73.5 -74t85 -43t107 -34q96 -29 159 -56.5t123 -72.5t90 -113.5t30 -160.5q0 -182 -123 -287.5t-301 -105.5q-246 0 -395 141q-29 26 -29 55z" />
<glyph unicode="T" horiz-adv-x="972" d="M16 1329.5q0 63.5 66 63.5h809q66 0 65.5 -63.5t-65.5 -63.5h-340v-1207q0 -66 -64 -65q-66 0 -65 65v1207h-340q-66 0 -66 63.5z" />
<glyph unicode="U" horiz-adv-x="1318" d="M180 438v897q0 63 64 64q66 0 65 -64v-897q0 -160 96.5 -248t252 -88t254 89.5t98.5 246.5v897q0 63 63 64q66 0 66 -64v-897q0 -211 -135.5 -334.5t-346.5 -123.5t-344 122.5t-133 335.5z" />
<glyph unicode="V" horiz-adv-x="1138" d="M51 1343q0 57 72 58q49 0 57 -53q39 -219 92 -433q102 -412 269 -759q262 504 417 1196q10 49 54 49q74 0 73 -58q0 -29 -45 -198.5t-88 -306.5q-137 -444 -352 -811q-18 -33 -59 -33q-47 0 -66 35q-190 356 -313 811q-35 129 -73 302.5t-38 200.5z" />
<glyph unicode="W" horiz-adv-x="1812" d="M39 1337q0 63 76 64q49 0 55 -51q23 -168 74 -406q94 -449 231 -766q229 498 367 1172q12 51 67 51q53 0 62 -53q20 -135 82 -402q106 -465 237 -768q221 481 352 1170q8 53 60 53q72 0 72 -55l-5 -29q-35 -197 -106 -453q-141 -514 -311 -835q-18 -35 -58 -35 q-47 0 -65 39q-209 430 -328 1059q-141 -614 -375 -1063q-18 -35 -61 -35q-41 0 -59 39q-164 332 -279 833q-88 373 -88 471z" />
<glyph unicode="X" horiz-adv-x="1103" d="M76 59q0 289 401 648q-348 330 -348 626q0 66 66 66q63 0 63 -64q0 -131 75 -262t232 -289q336 324 336 553q0 61 66 62q61 0 61 -66q0 -268 -377 -626q373 -344 373 -648q0 -66 -66 -65q-63 0 -63 63q0 129 -79 266.5t-253 305.5q-360 -328 -360 -574q0 -61 -68 -61 q-59 -1 -59 65z" />
<glyph unicode="Y" horiz-adv-x="1028" d="M49 1337q0 61 66 62q63 0 63 -64q0 -154 93.5 -349t228.5 -335q137 137 240.5 342t109.5 344q2 61 65.5 61.5t63.5 -65.5q0 -156 -129 -400.5t-285 -385.5v-490q0 -63 -63 -63q-66 0 -66 63v488q-150 137 -268.5 374.5t-118.5 417.5z" />
<glyph unicode="Z" horiz-adv-x="1050" d="M53 72q0 106 97 252q80 121 248.5 320.5t295.5 362t156 259.5h-682q-66 0 -66 63.5t66 63.5h745q31 0 53.5 -26t22.5 -58q0 -94 -90 -236q-72 -113 -241 -312.5t-303 -369.5t-165 -264h711q66 0 66 -63.5t-66 -63.5h-774q-33 0 -53.5 19.5t-20.5 52.5z" />
<glyph unicode="[" horiz-adv-x="561" d="M164 -27v1407q0 135 129 136h141q66 0 66 -60q0 -55 -66 -55h-123q-29 0 -28 -33v-1382q0 -33 28 -33h123q66 0 66 -55q0 -59 -66 -60h-141q-129 0 -129 135z" />
<glyph unicode="\" horiz-adv-x="720" d="M25 1567q0 39 45 53q16 6 26 6q35 0 51 -45l539 -1581q6 -16 6 -29q0 -39 -45 -51q-10 -4 -26 -4q-39 0 -54 43l-538 1583q-4 11 -4 25z" />
<glyph unicode="]" horiz-adv-x="561" d="M61 -102q0 55 66 55h123q29 0 29 33v1382q0 33 -29 33h-123q-66 0 -66 55q0 59 66 60h141q129 0 129 -136v-1407q0 -135 -129 -135h-141q-66 1 -66 60z" />
<glyph unicode="^" horiz-adv-x="1208" d="M119 747.5q0 22.5 20 49.5l408 581q25 35 57.5 35t57.5 -35l407 -585q20 -29 21 -50q0 -18 -19.5 -35.5t-44.5 -17.5t-51 39l-371 518l-371 -518q-27 -39 -51 -39q-23 0 -43 17.5t-20 40z" />
<glyph unicode="_" horiz-adv-x="1024" d="M-55 -264.5q0 57.5 55 57.5h1024q55 0 55 -57.5t-55 -57.5h-1024q-55 0 -55 57.5z" />
<glyph unicode="`" horiz-adv-x="415" d="M29 1478.5q0 26.5 18.5 44t42.5 17.5q23 0 55 -29l203 -157q39 -31 39 -58q0 -23 -18.5 -43t-40.5 -20q-18 0 -60 29l-198 157q-41 33 -41 59.5z" />
<glyph unicode="a" horiz-adv-x="1116" d="M92 524q0 231 111.5 386t333.5 155q205 0 301 -162v86q0 61 63.5 61.5t63.5 -61.5v-932q0 -63 -63.5 -63t-63.5 63v99q-100 -176 -315.5 -176t-323 155.5t-107.5 388.5zM219 524q0 -178 74 -301t248 -123q131 0 214 89.5t83 230.5v203q0 141 -83 231t-214 90 q-162 0 -242 -125t-80 -295z" />
<glyph unicode="b" horiz-adv-x="1116" d="M152 57v1418q0 61 61 61q66 0 66 -61v-594q39 72 120.5 128t192.5 56q215 0 323.5 -139.5t108.5 -393t-120 -403t-326 -149.5q-209 0 -299 172v-95q0 -63 -66 -63q-61 0 -61 63zM279 444q0 -154 81.5 -249t214.5 -95q152 0 237 117t85 315q0 195 -81 303.5t-236 108.5 q-127 0 -214 -88t-87 -254v-158z" />
<glyph unicode="c" horiz-adv-x="987" d="M92 522q0 248 134 395.5t339 147.5q199 0 316 -117q25 -25 24.5 -49.5t-19 -43.5t-42.5 -19q-16 0 -56 28q-113 80 -227 80q-152 0 -247 -112.5t-95 -309.5q0 -199 92 -310.5t244 -111.5q125 0 236 86q39 29 57 29q27 0 43 -20.5t16 -44.5q0 -29 -28 -52 q-141 -119 -328 -118q-209 0 -334 148t-125 394z" />
<glyph unicode="d" horiz-adv-x="1107" d="M92 516q0 248 122 398.5t327 150.5q104 0 181 -46t116 -114v570q0 61 65 61q61 0 62 -61v-1418q0 -63 -62 -63q-66 0 -65 63v80q-37 -66 -116 -111.5t-181 -45.5q-213 0 -331 142t-118 394zM219 516q0 -199 85 -307.5t237 -108.5q131 0 214 91.5t83 232.5v199 q0 141 -83 231t-214 90q-143 0 -232.5 -119t-89.5 -309z" />
<glyph unicode="e" horiz-adv-x="1042" d="M92 512q0 233 121 393t340 160q188 0 295.5 -127t107.5 -338q0 -117 -96 -117h-639q0 -170 96.5 -276.5t243.5 -106.5q125 0 240 72q33 20 47 21q25 0 41 -21.5t16 -44.5t-28 -47q-127 -100 -318 -100q-219 0 -343 146t-124 386zM225 602h604q2 145 -70.5 243.5 t-209.5 98.5q-143 0 -229.5 -98.5t-94.5 -243.5z" />
<glyph unicode="f" horiz-adv-x="608" d="M31 985q0 59 63 59h115v136q0 356 299 356q61 0 106 -25q35 -16 35 -53q0 -25 -15.5 -44t-35.5 -19q-10 0 -31 8q-31 12 -65 12q-88 0 -127 -53t-39 -176v-142h174q63 0 63 -59t-63 -59h-174v-869q0 -63 -63.5 -63t-63.5 63v869h-115q-63 0 -63 59z" />
<glyph unicode="g" horiz-adv-x="1116" d="M92 524q0 252 121 396.5t328 144.5q104 0 181 -46t116 -114v84q0 61 65 62q61 0 62 -62v-895q0 -526 -467 -526q-82 0 -164 26.5t-133 61.5q-39 29 -39 55q0 29 16.5 49.5t36.5 20.5q18 0 57 -23q123 -70 230 -69q336 0 336 374v99q-41 -80 -121 -131t-191 -51 q-197 0 -315.5 144t-118.5 400zM219 524.5q0 -198.5 85 -311.5t237 -113q135 0 216 91.5t81 232.5v199q0 141 -83 231t-214 90q-147 0 -234.5 -110.5t-87.5 -309z" />
<glyph unicode="h" horiz-adv-x="1114" d="M152 57v1416q0 63 63.5 63t63.5 -63v-594q45 82 132 134t197 52q184 0 271.5 -104.5t87.5 -266.5v-637q0 -63 -62 -63q-66 0 -65 63v602q0 285 -248 285q-135 0 -224 -96t-89 -268v-523q0 -63 -63.5 -63t-63.5 63z" />
<glyph unicode="i" horiz-adv-x="430" d="M129 1388.5q0 34.5 25.5 60.5t60.5 26q37 0 61.5 -26t24.5 -60q0 -37 -24.5 -61.5t-61.5 -24.5q-35 0 -60.5 25.5t-25.5 60zM152 57v932q0 61 63.5 61.5t63.5 -61.5v-932q0 -63 -66 -63q-61 0 -61 63z" />
<glyph unicode="j" horiz-adv-x="430" d="M-174 -358q0 27 14.5 45t34.5 18q12 0 31 -6q41 -12 80 -12q92 0 129 60t37 173v1067q0 63 63.5 63.5t63.5 -63.5v-1071q0 -348 -295 -348q-72 0 -123 22q-35 17 -35 52zM129 1388.5q0 34.5 25.5 60.5t60.5 26q37 0 61.5 -26t24.5 -60q0 -37 -24.5 -61.5t-61.5 -24.5 q-35 0 -60.5 25.5t-25.5 60z" />
<glyph unicode="k" horiz-adv-x="950" d="M152 59v1414q0 63 63.5 63t63.5 -63v-898q276 195 452 445q23 33 51 33q27 0 46.5 -16.5t19.5 -37.5q0 -23 -19 -49q-111 -162 -319 -344q117 -104 221.5 -243.5t159.5 -249.5q18 -37 18 -62q0 -23 -19.5 -41t-45.5 -18q-35 0 -58 43q-168 315 -376 495q-82 -61 -131 -94 v-377q0 -66 -63.5 -66t-63.5 66z" />
<glyph unicode="l" horiz-adv-x="430" d="M152 55v1420q0 61 63.5 61t63.5 -61v-1420q0 -61 -63.5 -61t-63.5 61z" />
<glyph unicode="m" horiz-adv-x="1712" d="M152 57v930q0 63 63.5 63.5t63.5 -63.5v-86q43 72 118.5 118t171.5 46q221 0 316 -186q43 82 124 134t193 52q176 0 269.5 -96.5t93.5 -259.5v-652q0 -63 -62 -63q-66 0 -65 63v633q0 115 -63.5 184.5t-180.5 69.5t-194.5 -84t-77.5 -256v-547q0 -63 -62 -63 q-66 0 -65 63v633q0 111 -56.5 182.5t-179.5 71.5q-129 0 -204.5 -89t-75.5 -251v-547q0 -63 -63.5 -63t-63.5 63z" />
<glyph unicode="n" horiz-adv-x="1114" d="M152 57v930q0 63 63.5 63.5t63.5 -63.5v-108q45 82 132 134t197 52q184 0 271.5 -104.5t87.5 -266.5v-637q0 -63 -62 -63q-66 0 -65 63v602q0 285 -248 285q-135 0 -224 -96t-89 -268v-523q0 -63 -63.5 -63t-63.5 63z" />
<glyph unicode="o" horiz-adv-x="1099" d="M92 522q0 274 146 420q127 123 311 123q188 0 311 -123q147 -143 148 -420q0 -262 -142 -409q-125 -133 -317 -133q-190 0 -316 133q-141 147 -141 409zM219 522q0 -211 103 -319q92 -102 227 -103q133 0 229 103q102 111 103 319q0 217 -105 328q-90 94 -227 94 q-135 0 -225 -94q-105 -107 -105 -328z" />
<glyph unicode="p" horiz-adv-x="1116" d="M152 -371v1358q0 63 61 64q66 0 66 -64v-76q37 63 115.5 108.5t180.5 45.5q209 0 329 -138.5t120 -394.5q0 -254 -122 -403t-329 -149q-104 0 -180 46t-114 113v-510q0 -61 -66 -61q-61 0 -61 61zM279 418q0 -139 82.5 -228.5t213.5 -89.5q145 0 233.5 117t88.5 315 q0 195 -86 303.5t-236 108.5q-131 0 -213.5 -89t-82.5 -228v-209z" />
<glyph unicode="q" horiz-adv-x="1116" d="M92 514q0 254 136.5 402.5t346.5 148.5q170 0 263 -154v76q0 63 65 64q61 0 62 -64v-1358q0 -61 -62 -61q-66 0 -65 61v510q-39 -68 -116 -113.5t-181 -45.5q-207 0 -328 141t-121 393zM219 514q0 -197 88 -305.5t234 -108.5q131 0 214 89.5t83 230.5v207q0 139 -83 228 t-214 89q-150 0 -236 -116.5t-86 -313.5z" />
<glyph unicode="r" horiz-adv-x="698" d="M152 57v932q0 61 63.5 61.5t63.5 -61.5v-71q78 147 251 147q147 0 148 -72q0 -27 -12.5 -46t-32.5 -19q-6 0 -31 6q-37 10 -74 10q-111 0 -180 -79t-69 -212v-596q0 -63 -63.5 -63t-63.5 63z" />
<glyph unicode="s" horiz-adv-x="894" d="M74 145q0 25 17.5 44.5t39.5 19.5q25 0 49 -19q121 -90 262 -90q119 0 181.5 47.5t62.5 126.5q0 78 -61.5 119t-148.5 57.5t-175 39t-149.5 89t-61.5 181.5q0 135 103.5 220t267.5 85q172 0 293 -90q33 -25 32 -53q0 -23 -18 -46.5t-41 -23.5q-20 0 -49 20 q-104 72 -219 72q-121 0 -181.5 -51t-60.5 -125q0 -70 44 -112t110.5 -56t143.5 -33.5t143.5 -43t110.5 -84t44 -156.5q0 -131 -99.5 -217t-271.5 -86q-197 0 -342 112q-26 20 -26 53z" />
<glyph unicode="t" horiz-adv-x="649" d="M31 985q0 59 63 59h115v240q0 61 63.5 61.5t63.5 -61.5v-240h174q63 0 63 -59q0 -57 -63 -57h-174v-652q0 -176 121 -176q39 0 75 17q39 16 46 16q20 0 35.5 -18.5t15.5 -40.5q0 -27 -31 -51q-51 -43 -145 -43q-119 0 -181.5 65.5t-62.5 220.5v662h-115q-63 0 -63 57z " />
<glyph unicode="u" horiz-adv-x="1114" d="M147 367v620q0 63 62 64q66 0 65 -64v-612q0 -121 62.5 -198t183.5 -77q147 0 231.5 98.5t84.5 260.5v528q0 63 63.5 63.5t63.5 -63.5v-930q0 -63 -63.5 -63t-63.5 63v109q-106 -186 -334 -186q-178 0 -266.5 108.5t-88.5 278.5z" />
<glyph unicode="v" horiz-adv-x="970" d="M51 991q0 29 20.5 45.5t51.5 16.5q49 0 57 -52q86 -457 285 -856q195 346 328 859q12 49 55 49q72 0 72 -56q0 -23 -13 -71q-59 -223 -168.5 -480.5t-218.5 -420.5q-18 -31 -53 -31h-12q-35 0 -56 33q-102 164 -197.5 422t-144.5 493q-6 33 -6 49z" />
<glyph unicode="w" horiz-adv-x="1507" d="M39 997q0 55 65 56q47 0 58 -54q23 -145 59 -292q74 -319 180 -562q164 332 285 856q8 51 68 52q53 0 65 -54q29 -164 62 -292q78 -330 184 -562q195 418 276 856q8 51 62 52q66 0 65 -54l-4 -34q-31 -150 -88 -334q-117 -371 -243 -604q-18 -33 -64 -33h-12 q-43 0 -62 35q-150 289 -247 772q-121 -496 -283 -774q-18 -33 -62 -33h-10q-47 0 -65 35q-123 229 -215 604q-43 164 -72 344q-2 14 -2 20z" />
<glyph unicode="x" horiz-adv-x="964" d="M61 59q0 211 334 471q-115 98 -202 222.5t-87 238.5q0 59 63.5 59.5t63.5 -61.5q0 -162 261 -389q281 246 280 391q0 59 66 60q63 0 63 -62q0 -190 -315 -461q309 -256 309 -473q0 -61 -66 -61q-61 0 -61 63q0 100 -86 208t-192 192q-109 -82 -206.5 -197t-97.5 -205 q0 -62 -58 -61h-7q-62 2 -62 65z" />
<glyph unicode="y" horiz-adv-x="970" d="M-2 -371q0 20 10 31.5t47 20.5q131 35 340 356q-145 250 -254 592q-55 176 -82 305q-8 45 -8 57q0 29 20.5 45.5t51.5 16.5q49 0 57 -52q31 -168 74 -305q106 -346 211 -549q127 229 233 531q61 174 95 326q10 49 55 49q72 0 72 -56q0 -20 -13 -69q-61 -227 -167.5 -475 t-223.5 -443q-94 -162 -194.5 -273.5t-157.5 -139.5q-61 -31 -115 -31q-20 0 -35.5 17t-15.5 46z" />
<glyph unicode="z" horiz-adv-x="874" d="M31 84q0 74 82 184q76 98 209 230.5t232 239t134 188.5h-543q-63 0 -63 59t63 59h611q78 0 78 -75q0 -74 -123 -236q-59 -78 -183.5 -199.5t-223.5 -229t-132 -185.5h573q63 0 63.5 -59.5t-63.5 -59.5h-636q-35 0 -56.5 23.5t-21.5 60.5z" />
<glyph unicode="{" horiz-adv-x="622" d="M53 680q0 53 64 70q133 37 133 276v168q0 186 55 252q55 70 182 70q74 0 74 -56q0 -59 -65 -59q-70 0 -98.5 -31t-28.5 -164v-137q0 -176 -43 -262q-41 -88 -133 -129q92 -41 133 -129q43 -86 43 -262v-137q0 -129 28 -164q18 -18 35 -22.5t70 -8.5q59 -2 59 -55 q0 -57 -69 -60q-131 0 -187 70q-55 66 -55 252v168q0 127 -28.5 185t-102.5 91q-35 14 -50.5 29.5t-15.5 44.5z" />
<glyph unicode="|" horiz-adv-x="446" d="M164 -414v1995q0 59 57 59q61 0 62 -59v-1995q0 -61 -59.5 -61t-59.5 61z" />
<glyph unicode="}" horiz-adv-x="622" d="M61 -100q0 53 60 55q53 4 69.5 8t34.5 23q29 35 29 164v137q0 176 43 262q41 88 133 129q-92 41 -133 129q-43 86 -43 262v137q0 133 -28.5 164t-98.5 31q-66 0 -66 59q0 55 74 56q127 0 182 -70q55 -66 56 -252v-168q0 -240 133 -276q63 -16 63 -70q0 -29 -15 -44 t-50 -30q-74 -33 -102.5 -91t-28.5 -185v-168q0 -186 -56 -252q-55 -70 -186 -70q-70 3 -70 60z" />
<glyph unicode="~" horiz-adv-x="1165" d="M139 461q0 29 21 74q70 141 235 141q88 0 209 -83t174 -83q39 0 69 17.5t41 34t30 48.5q25 45 49 45q59 0 59 -49q0 -29 -18 -69q-27 -59 -88.5 -104.5t-151.5 -45.5q-68 0 -137.5 42t-132 83t-113.5 41q-53 0 -86 -26.5t-61 -82.5q-18 -37 -43 -36q-20 0 -38 15t-18 38z " />
<glyph unicode="&#xa1;" horiz-adv-x="514" d="M164 973q0 39 27.5 65.5t66.5 26.5t65.5 -26.5t26.5 -65.5t-26.5 -66.5t-65.5 -27.5q-41 0 -67.5 27.5t-26.5 66.5zM193 -297v967q0 63 63 63t63 -63v-967q0 -63 -63 -63t-63 63z" />
<glyph unicode="&#xa2;" horiz-adv-x="972" d="M92 522q0 227 113.5 370.5t296.5 168.5v125q0 51 49 51q51 0 51 -51v-123q174 -10 279 -115q25 -25 24.5 -49.5t-19 -43.5t-42.5 -19q-16 0 -56 28q-94 68 -186 78v-840q106 14 189 80q39 29 57 29q27 0 43 -19.5t16 -41.5q0 -29 -28 -52q-121 -100 -277 -114v-152 q0 -51 -51 -51q-49 0 -49 51v152q-188 16 -299 161.5t-111 376.5zM219 522q0 -180 77 -289.5t206 -130.5v836q-129 -23 -206 -132.5t-77 -283.5z" />
<glyph unicode="&#xa3;" d="M119 684q0 61 63 61h109q-55 150 -55 275q0 172 110.5 282.5t288.5 110.5q193 0 309 -117q29 -29 29 -53t-17.5 -43.5t-44.5 -19.5q-25 0 -61 30q-100 82 -215 82q-123 0 -198 -74.5t-75 -193.5q0 -96 68 -279h326q63 0 63 -61q0 -59 -63 -59h-289q16 -72 16 -148 q0 -184 -170 -358h588q63 0 63.5 -59.5t-63.5 -59.5h-657q-78 0 -78 76q0 23 13.5 46t22.5 35.5t40 45.5q117 131 116 266q0 76 -24 156h-152q-63 0 -63 59z" />
<glyph unicode="&#xa4;" horiz-adv-x="1218" d="M72 551q0 59 65 59h121q-2 25 -2 80q0 57 6 113h-125q-66 0 -65.5 59.5t65.5 59.5h144q51 225 192 358t332 133q162 0 278 -86q41 -31 41 -61q0 -25 -17 -44.5t-42 -19.5q-20 0 -66 29q-98 61 -198 61q-143 0 -244.5 -99t-144.5 -271h495q66 0 66 -56q0 -63 -66 -63h-516 q-6 -55 -6 -113q0 -55 2 -80h422q66 0 65 -51q0 -68 -65 -67h-408q35 -190 133.5 -291t241.5 -101q129 0 260 78q31 20 54 21q25 0 38 -17.5t13 -40.5q0 -27 -33 -55q-139 -106 -334 -106q-207 0 -337 135t-167 377h-133q-65 0 -65 59z" />
<glyph unicode="&#xa5;" d="M88 428q0 59 66 59h323v172h-323q-66 0 -66 59.5t66 59.5h229q-92 113 -175 287t-83 272q0 61 65 62q29 0 42.5 -15.5t19.5 -48.5q55 -299 289 -557q113 119 200.5 270.5t114.5 288.5q6 33 20.5 47.5t45.5 14.5q63 0 63 -56q0 -86 -95 -269t-188 -296h230 q66 0 65.5 -59.5t-65.5 -59.5h-326v-172h326q66 0 65.5 -59t-65.5 -59h-326v-312q0 -63 -63 -63q-66 0 -66 63v312h-323q-66 0 -66 59z" />
<glyph unicode="&#xa6;" horiz-adv-x="446" d="M164 305q0 59 57 60q61 0 62 -60v-719q0 -61 -59.5 -61t-59.5 61v719zM164 862v719q0 59 57 59q61 0 62 -59v-719q0 -61 -59.5 -61t-59.5 61z" />
<glyph unicode="&#xa7;" horiz-adv-x="1017" d="M90 -188q0 27 19.5 48t40 21t49.5 -18q147 -94 272 -94q152 0 214.5 64.5t62.5 148.5q0 86 -56.5 134t-220.5 111q-172 66 -251 135.5t-79 202.5q0 184 193 287q-156 88 -156 256q0 125 100.5 219t274.5 94q141 0 260 -61q45 -23 45 -55q0 -29 -17.5 -50.5t-41.5 -21.5 q-18 0 -60 20q-88 47 -190 47q-121 0 -181.5 -53t-60.5 -133q0 -74 45 -121t162 -92q96 -39 143.5 -59.5t107.5 -56t86 -68.5t45 -82t19 -113q0 -84 -44 -163.5t-121 -131.5q127 -80 127 -237q0 -137 -102.5 -239.5t-305.5 -102.5q-94 0 -190.5 33.5t-157.5 80.5 q-31 25 -31 50zM270 580q0 -76 45 -123t138 -84q139 -57 198 -86q61 37 100.5 96t39.5 123q0 41 -8.5 70.5t-45.5 68.5t-104 70q-147 68 -193 80q-170 -63 -170 -215z" />
<glyph unicode="&#xa8;" horiz-adv-x="813" d="M139 1319q0 35 25.5 60.5t60.5 25.5q37 0 61.5 -24.5t24.5 -61.5t-24.5 -61.5t-61.5 -24.5q-35 0 -60.5 25.5t-25.5 60.5zM502 1319q0 35 25.5 60.5t60.5 25.5q37 0 61.5 -24.5t24.5 -61.5t-24.5 -61.5t-61.5 -24.5q-35 0 -60.5 25.5t-25.5 60.5z" />
<glyph unicode="&#xa9;" horiz-adv-x="1591" d="M82 698q0 297 208 506t505 209t505.5 -209t208.5 -506t-208.5 -504.5t-505.5 -207.5t-505 207.5t-208 504.5zM193 698q0 -248 176 -425t425.5 -177t427 176.5t177.5 426t-177.5 427t-427 177.5t-425.5 -177.5t-176 -427.5zM440 700q0 178 94.5 308.5t280.5 130.5 q162 0 248 -109q12 -20 12 -35q0 -23 -16.5 -38t-36.5 -15q-27 0 -53 27q-57 61 -154 61q-129 0 -194.5 -100.5t-65.5 -229.5q0 -135 66.5 -232t197.5 -97q94 0 174 69q27 23 43 23q23 0 38.5 -17.5t15.5 -37.5q0 -23 -21 -43q-106 -102 -270 -103q-143 0 -251 108.5 t-108 329.5z" />
<glyph unicode="&#xaa;" horiz-adv-x="770" d="M88 1051q0 156 78 259t229 103q125 0 185 -96v35q0 51 55 51q53 0 53 -51v-602q0 -53 -53 -54q-55 0 -55 54v47q-61 -111 -195 -111q-147 0 -222 103.5t-75 261.5zM197 1051q0 -260 200 -260q80 0 131.5 56t51.5 142v121q0 88 -50.5 143.5t-132.5 55.5q-102 0 -151 -74.5 t-49 -183.5z" />
<glyph unicode="&#xab;" horiz-adv-x="1159" d="M96 551q0 23 29 51l424 375q27 23 47 22.5t41 -22.5q16 -23 16 -39q0 -20 -28 -49l-381 -338l381 -338q29 -25 28 -49q0 -16 -16 -39q-23 -23 -39 -23t-49 23l-424 375q-29 22 -29 51zM526 551q0 23 29 51l424 375q27 23 47.5 22.5t40.5 -22.5q16 -23 16 -39 q0 -20 -28 -49l-381 -338l381 -338q29 -25 28 -49q0 -16 -16 -39q-23 -23 -39 -23t-49 23l-424 375q-29 22 -29 51z" />
<glyph unicode="&#xac;" d="M57 696.5q0 57.5 66 57.5h840q39 0 52 -12.5t13 -45.5v-422q0 -63 -59.5 -63t-59.5 63v365h-786q-66 0 -66 57.5z" />
<glyph unicode="&#xad;" horiz-adv-x="737" d="M90 548.5q0 63.5 64 63.5h430q63 0 63 -63.5t-63 -63.5h-430q-64 0 -64 63.5z" />
<glyph unicode="&#xae;" horiz-adv-x="1591" d="M82 698q0 297 208 506t505 209t505.5 -209t208.5 -506t-208.5 -504.5t-505.5 -207.5t-505 207.5t-208 504.5zM193 698q0 -248 176 -425t425.5 -177t427 176.5t177.5 426t-177.5 427t-427 177.5t-425.5 -177.5t-176 -427.5zM551 340v668q0 109 106 108h136q268 0 268 -233 q0 -72 -41 -130.5t-115 -78.5q84 -63 187 -303q8 -16 8 -31q0 -23 -18.5 -39t-45.5 -16q-33 0 -45 32q-63 166 -123.5 247t-134.5 81h-67v-305q0 -55 -56 -55q-59 0 -59 55zM666 754h118q74 0 119 33.5t45 91.5q0 70 -35.5 97.5t-117.5 27.5h-129v-250z" />
<glyph unicode="&#xaf;" horiz-adv-x="942" d="M184 1292.5q0 28.5 15.5 43t56.5 14.5h428q43 0 58.5 -14.5t15.5 -43.5q0 -57 -74 -57h-428q-41 0 -56.5 14.5t-15.5 43z" />
<glyph unicode="&#xb0;" horiz-adv-x="720" d="M80 1138.5q0 118.5 83 202.5t197.5 84t197.5 -84t83 -202.5t-83 -202.5t-197.5 -84t-197.5 84t-83 202.5zM195 1138.5q0 -71.5 48 -121.5t117.5 -50t117.5 50t48 121.5t-48 122t-117.5 50.5t-117.5 -50.5t-48 -122z" />
<glyph unicode="&#xb1;" d="M57 57.5q0 57.5 66 57.5h840q66 0 65.5 -57.5t-65.5 -57.5h-840q-66 0 -66 57.5zM57 641q0 57 66 57h360v283q0 63 59.5 63t59.5 -63v-283h361q66 0 65.5 -57t-65.5 -57h-361v-283q0 -63 -59.5 -63t-59.5 63v283h-360q-66 0 -66 57z" />
<glyph unicode="&#xb2;" horiz-adv-x="790" d="M139 668q0 90 56.5 156.5t189.5 164.5q147 102 147 199q0 55 -33.5 88t-101.5 33q-70 0 -141 -56q-27 -18 -43 -18q-20 0 -35.5 16.5t-15.5 38.5q0 25 31 49q94 74 210 74q115 0 178.5 -58.5t63.5 -160.5q0 -84 -49 -147.5t-152 -139.5q-72 -51 -105.5 -78.5t-63 -69.5 t-29.5 -83h336q55 0 55 -51q0 -55 -55 -56h-334q-109 1 -109 99z" />
<glyph unicode="&#xb3;" horiz-adv-x="790" d="M133 649q0 23 16.5 41.5t38.5 18.5q14 0 39 -17q66 -45 135 -45q76 0 126.5 45t50.5 117q0 158 -185 158q-45 0 -45 47q0 23 23 49l178 223h-311q-51 0 -51.5 53.5t51.5 53.5h331q96 0 97 -76q0 -41 -60 -119l-114 -143q197 -41 196 -246q0 -113 -82 -190.5t-202 -77.5 q-131 0 -211 71q-21 17 -21 37z" />
<glyph unicode="&#xb4;" horiz-adv-x="415" d="M29 1296q0 25 41 58l194 153q41 33 62 33q25 0 43 -18.5t18 -42.5q0 -27 -39 -60l-201 -157q-37 -29 -55 -29q-25 0 -44 18t-19 45z" />
<glyph unicode="&#xb5;" horiz-adv-x="1118" d="M152 -369v1356q0 63 63.5 63.5t63.5 -63.5v-602q0 -145 67.5 -213t179.5 -68q137 0 225.5 94.5t88.5 266.5v522q0 63 63.5 63.5t63.5 -63.5v-930q0 -63 -63.5 -63t-63.5 63v109q-45 -82 -132 -134t-198 -52q-154 0 -231 94v-443q0 -63 -63.5 -63t-63.5 63z" />
<glyph unicode="&#xb6;" horiz-adv-x="1011" d="M78 1120q0 121 85 200t202 79h534q63 0 64 -64q0 -66 -64 -65h-106v-1409q0 -66 -66 -66q-61 0 -61 66v1409h-181v-1409q0 -66 -63.5 -66t-63.5 66v973q-113 4 -196.5 83.5t-83.5 202.5z" />
<glyph unicode="&#xb7;" horiz-adv-x="405" d="M102 631q0 43 30 71.5t71 28.5t70.5 -29.5t29.5 -70.5t-29.5 -70t-70.5 -29t-71 29t-30 70z" />
<glyph unicode="&#xb8;" horiz-adv-x="884" d="M307 -315q0 18 10.5 30.5t26.5 12.5q8 0 39 -11q43 -16 76 -16q82 0 82 66q0 61 -80 61q-14 0 -39 -2t-33 -2q-31 0 -31 29q0 14 13 38l57 109h92l-53 -102q29 4 47 4q63 0 96 -35t33 -92q0 -70 -49 -114t-143 -44q-66 0 -105 20.5t-39 47.5z" />
<glyph unicode="&#xb9;" horiz-adv-x="790" d="M147 1260q0 29 37 47q27 16 80 44.5t80 45.5q33 16 51 16q63 0 64 -70v-667h123q55 0 55 -53.5t-55 -53.5h-369q-55 0 -55 52q0 55 55 55h135v606q-16 -8 -49 -28.5t-49 -28.5q-33 -20 -51 -21q-23 0 -37.5 16.5t-14.5 39.5z" />
<glyph unicode="&#xba;" horiz-adv-x="792" d="M88 1049q0 158 81 261t226 103q147 0 229.5 -103.5t77.5 -260.5q0 -152 -82.5 -257.5t-224.5 -105.5q-143 0 -225 105.5t-82 257.5zM197 1049q0 -113 49 -187t149 -74q98 0 150.5 75t48.5 186q4 117 -46 188.5t-152.5 71.5t-150.5 -71.5t-48 -188.5z" />
<glyph unicode="&#xbb;" horiz-adv-x="1159" d="M76 164q0 25 28 49l381 338l-381 338q-29 29 -28 49q0 16 16 39q20 23 41 22.5t47 -22.5l424 -375q29 -29 29 -51q0 -29 -29 -51l-424 -375q-33 -23 -49 -23t-39 23q-16 23 -16 39zM506 164q0 25 29 49l380 338l-380 338q-29 29 -29 49q0 16 16 39q20 23 41 22.5 t47 -22.5l424 -375q29 -29 29 -51q0 -29 -29 -51l-424 -375q-33 -23 -49 -23t-39 23q-16 23 -16 39z" />
<glyph unicode="&#xbc;" horiz-adv-x="1765" d="M147 1260q0 29 37 47l160 90q33 16 51 16q63 0 64 -70v-667h123q55 0 55 -53.5t-55 -53.5h-369q-55 0 -55 52q0 55 55 55h135v606l-98 -57q-33 -20 -51 -21q-23 0 -37.5 16.5t-14.5 39.5zM389 27q0 14 21 47l895 1306q25 33 47 33q20 0 38.5 -15.5t18.5 -31.5 q0 -14 -20 -47l-895 -1307q-25 -33 -48 -32q-20 0 -38.5 15.5t-18.5 31.5zM1049 274q0 33 22 78l232 457q16 37 47 37q23 0 40 -14.5t17 -34.5q0 -18 -18 -52l-230 -450h281v293q0 53 51 53q55 0 55 -53v-293h43q51 0 51 -53q0 -49 -51 -49h-43v-148q0 -51 -55 -51 q-51 0 -51 51v148h-285q-106 -1 -106 81z" />
<glyph unicode="&#xbd;" horiz-adv-x="1765" d="M147 1260q0 29 37 47l160 90q33 16 51 16q63 0 64 -70v-667h123q55 0 55 -53.5t-55 -53.5h-369q-55 0 -55 52q0 55 55 55h135v606l-98 -57q-33 -20 -51 -21q-23 0 -37.5 16.5t-14.5 39.5zM389 27q0 14 21 47l895 1306q25 33 47 33q20 0 38.5 -15.5t18.5 -31.5 q0 -14 -20 -47l-895 -1307q-25 -33 -48 -32q-20 0 -38.5 15.5t-18.5 31.5zM1108 98q0 90 56.5 157t189.5 165q147 102 147 198q0 55 -33.5 88t-101.5 33q-70 0 -141 -55q-27 -18 -43 -18q-20 0 -36 16t-16 39q0 25 31 49q94 74 211 74q115 0 178.5 -58.5t63.5 -160.5 q0 -84 -49 -147.5t-152 -139.5q-72 -51 -105.5 -79t-63.5 -70t-30 -83h336q55 0 56 -51q0 -55 -56 -55h-333q-109 0 -109 98z" />
<glyph unicode="&#xbe;" horiz-adv-x="1781" d="M133 649q0 23 16.5 41.5t38.5 18.5q14 0 39 -17q66 -45 135 -45q76 0 126.5 45t50.5 117q0 158 -185 158q-45 0 -45 47q0 23 23 49q129 158 178 223h-311q-51 0 -51.5 53.5t51.5 53.5h331q96 0 97 -76q0 -41 -60 -119l-114 -143q197 -41 196 -246q0 -113 -82 -190.5 t-202 -77.5q-131 0 -211 71q-21 17 -21 37zM395 27q0 14 21 47l895 1306q25 33 47 33q20 0 38.5 -15.5t18.5 -31.5q0 -14 -20 -47l-895 -1307q-25 -33 -47 -32q-20 0 -39 15.5t-19 31.5zM1061 274q0 33 22 78l232 457q16 37 47 37q23 0 40 -14.5t17 -34.5q0 -18 -18 -52 l-230 -450h281v293q0 53 51 53q55 0 56 -53v-293h43q51 0 51 -53q0 -49 -51 -49h-43v-148q0 -51 -56 -51q-51 0 -51 51v148h-285q-106 -1 -106 81z" />
<glyph unicode="&#xbf;" horiz-adv-x="903" d="M76 -35q0 113 59.5 196t163.5 161q86 66 121 124t35 140v108q0 63 63.5 63.5t63.5 -63.5v-119q0 -205 -209 -348q-80 -55 -123 -114.5t-43 -143.5q0 -94 67.5 -154.5t182.5 -60.5q139 0 245 96q41 37 66 37q23 0 40 -16t17 -41q0 -33 -34 -68q-131 -131 -338 -131 q-172 0 -274.5 94.5t-102.5 239.5zM424 973q0 39 27.5 65.5t66.5 26.5t65.5 -26.5t26.5 -65.5t-26.5 -66.5t-65.5 -27.5t-66.5 27.5t-27.5 66.5z" />
<glyph unicode="&#xc0;" horiz-adv-x="1171" d="M49 51q0 14 6 39q20 86 131 442q150 465 346 834q18 33 58 33h14q41 0 55 -33q199 -379 334 -834q96 -324 125 -452q4 -16 4 -31q0 -55 -71 -55q-43 0 -56 49q-16 78 -100 367h-612q-88 -289 -107 -367q-12 -49 -53 -49q-74 0 -74 57zM322 535h536q-115 379 -262 679 q-151 -302 -274 -679zM367 1785.5q0 26.5 18 44t43 17.5q23 0 55 -28l203 -158q39 -31 39 -57q0 -23 -18.5 -43.5t-40.5 -20.5q-18 0 -60 29l-198 157q-41 33 -41 59.5z" />
<glyph unicode="&#xc1;" horiz-adv-x="1171" d="M49 51q0 14 6 39q20 86 131 442q150 465 346 834q18 33 58 33h14q41 0 55 -33q199 -379 334 -834q96 -324 125 -452q4 -16 4 -31q0 -55 -71 -55q-43 0 -56 49q-16 78 -100 367h-612q-88 -289 -107 -367q-12 -49 -53 -49q-74 0 -74 57zM322 535h536q-115 379 -262 679 q-151 -302 -274 -679zM440 1604q0 25 41 57l195 154q41 33 61 32q25 0 43.5 -18.5t18.5 -42.5q0 -27 -39 -60l-201 -157q-37 -29 -55 -29q-25 0 -44.5 18.5t-19.5 45.5z" />
<glyph unicode="&#xc2;" horiz-adv-x="1171" d="M49 51q0 14 6 39q20 86 131 442q150 465 346 834q18 33 58 33h14q41 0 55 -33q199 -379 334 -834q96 -324 125 -452q4 -16 4 -31q0 -55 -71 -55q-43 0 -56 49q-16 78 -100 367h-612q-88 -289 -107 -367q-12 -49 -53 -49q-74 0 -74 57zM311 1591q0 33 45 62l179 116 q35 25 65 25q27 0 66 -25l172 -110q51 -33 51 -64q0 -23 -14.5 -40t-34.5 -17q-16 0 -41 14l-199 129l-188 -122q-31 -20 -51.5 -20.5t-35 14.5t-14.5 38zM322 535h536q-115 379 -262 679q-151 -302 -274 -679z" />
<glyph unicode="&#xc3;" horiz-adv-x="1171" d="M49 51q0 14 6 39q20 86 131 442q150 465 346 834q18 33 58 33h14q41 0 55 -33q199 -379 334 -834q96 -324 125 -452q4 -16 4 -31q0 -55 -71 -55q-43 0 -56 49q-16 78 -100 367h-612q-88 -289 -107 -367q-12 -49 -53 -49q-74 0 -74 57zM285 1595q0 37 56 79t118 42 q43 0 119.5 -30.5t117.5 -30.5q33 0 67 30.5t52 30.5q25 0 42 -15t17 -40q0 -37 -56 -79t-118 -42q-41 0 -118.5 31t-116.5 31q-33 0 -68 -31t-53 -31q-25 0 -42 15t-17 40zM322 535h536q-115 379 -262 679q-151 -302 -274 -679z" />
<glyph unicode="&#xc4;" horiz-adv-x="1171" d="M49 51q0 14 6 39q20 86 131 442q150 465 346 834q18 33 58 33h14q41 0 55 -33q199 -379 334 -834q96 -324 125 -452q4 -16 4 -31q0 -55 -71 -55q-43 0 -56 49q-16 78 -100 367h-612q-88 -289 -107 -367q-12 -49 -53 -49q-74 0 -74 57zM322 535h536q-115 379 -262 679 q-151 -302 -274 -679zM326 1626q0 35 25.5 60.5t60.5 25.5q37 0 61.5 -24.5t24.5 -61.5t-24.5 -61.5t-61.5 -24.5q-35 0 -60.5 25.5t-25.5 60.5zM688 1626q0 35 25.5 60.5t60.5 25.5q37 0 61.5 -24.5t24.5 -61.5t-24.5 -61.5t-61.5 -24.5q-35 0 -60.5 25.5t-25.5 60.5z" />
<glyph unicode="&#xc5;" horiz-adv-x="1171" d="M49 51q0 14 6 39q20 86 131 442q145 455 336 816q-49 23 -79.5 69.5t-30.5 104.5q0 78 54 134t130 56t130 -56.5t54 -133.5q0 -57 -30.5 -104.5t-79.5 -69.5q193 -377 323 -816q96 -324 125 -452q4 -16 4 -31q0 -55 -71 -55q-43 0 -56 49q-18 86 -100 369h-612 q-84 -279 -107 -369q-12 -49 -53 -49q-74 0 -74 57zM322 535h536q-115 379 -262 679q-151 -302 -274 -679zM485 1522q0 -47 33 -81t78 -34t78 34t33 81t-33 80.5t-78 33.5t-78 -33.5t-33 -80.5z" />
<glyph unicode="&#xc6;" horiz-adv-x="1746" d="M16 49q0 18 17 51q39 80 241 432q256 444 553 820q33 41 86 41h686q66 0 66 -63.5t-66 -63.5h-536q-35 0 -35 -39v-439h506q63 0 63 -65q0 -61 -63 -61h-506v-504q0 -31 27 -31h544q66 0 66 -61q0 -66 -66 -66h-563q-66 0 -101.5 36t-35.5 99v273h-547 q-33 -61 -103.5 -181.5t-98.5 -179.5q-29 -53 -64 -53q-27 0 -48.5 15t-21.5 40zM424 535h475v712q-244 -317 -475 -712z" />
<glyph unicode="&#xc7;" horiz-adv-x="1189" d="M92 696q0 322 170 519.5t440 197.5q238 0 367 -117q33 -31 33 -55q0 -29 -15.5 -47t-39.5 -18q-20 0 -66 30q-121 86 -279 86q-221 0 -351 -164.5t-130 -431.5q0 -283 128 -439.5t333 -156.5q178 0 336 129q27 23 51 23q23 0 37 -18.5t14 -40.5q0 -27 -35 -58 q-164 -141 -362 -153l-41 -84q25 4 51 4q53 0 88 -32t35 -91q0 -74 -54 -118t-143 -44q-63 0 -101 19.5t-38 48.5q0 43 39 43q10 0 41 -11q43 -16 72 -16q80 0 80 66q0 61 -78 61q-14 0 -41 -3t-37 -3q-27 0 -27 24q0 14 15 43l47 93q-256 18 -397.5 211.5t-141.5 502.5z " />
<glyph unicode="&#xc8;" horiz-adv-x="1032" d="M184 135v1102q0 156 150 156h551q66 0 65.5 -63.5t-65.5 -63.5h-537q-35 0 -35 -39v-439h506q63 0 64 -65q0 -61 -64 -61h-506v-504q0 -31 27 -31h545q66 0 65 -61q0 -66 -65 -66h-563q-66 0 -102 36t-36 99zM375 1785.5q0 26.5 18.5 44t42.5 17.5q23 0 56 -28l202 -158 q39 -31 39 -57q0 -23 -18.5 -43.5t-40.5 -20.5q-18 0 -60 29l-198 157q-41 33 -41 59.5z" />
<glyph unicode="&#xc9;" horiz-adv-x="1032" d="M184 135v1102q0 156 150 156h551q66 0 65.5 -63.5t-65.5 -63.5h-537q-35 0 -35 -39v-439h506q63 0 64 -65q0 -61 -64 -61h-506v-504q0 -31 27 -31h545q66 0 65 -61q0 -66 -65 -66h-563q-66 0 -102 36t-36 99zM451 1604q0 25 41 57l194 154q41 33 62 32q25 0 43 -18.5 t18 -42.5q0 -27 -39 -60l-201 -157q-37 -29 -55 -29q-25 0 -44 18.5t-19 45.5z" />
<glyph unicode="&#xca;" horiz-adv-x="1032" d="M184 135v1102q0 156 150 156h551q66 0 65.5 -63.5t-65.5 -63.5h-537q-35 0 -35 -39v-439h506q63 0 64 -65q0 -61 -64 -61h-506v-504q0 -31 27 -31h545q66 0 65 -61q0 -66 -65 -66h-563q-66 0 -102 36t-36 99zM283 1591q0 33 45 62l178 116q35 25 65 25q27 0 66 -25 l172 -110q51 -33 51 -64q0 -23 -14.5 -40t-34.5 -17q-16 0 -41 14l-199 129l-188 -122q-31 -20 -51.5 -20.5t-34.5 14.5t-14 38z" />
<glyph unicode="&#xcb;" horiz-adv-x="1032" d="M184 135v1102q0 156 150 156h551q66 0 65.5 -63.5t-65.5 -63.5h-537q-35 0 -35 -39v-439h506q63 0 64 -65q0 -61 -64 -61h-506v-504q0 -31 27 -31h545q66 0 65 -61q0 -66 -65 -66h-563q-66 0 -102 36t-36 99zM319 1626q0 35 26 60.5t61 25.5q37 0 61.5 -24.5t24.5 -61.5 t-25 -61.5t-61 -24.5q-35 0 -61 25.5t-26 60.5zM682 1626q0 35 25.5 60.5t60.5 25.5q37 0 61.5 -24.5t24.5 -61.5t-24.5 -61.5t-61.5 -24.5q-35 0 -60.5 25.5t-25.5 60.5z" />
<glyph unicode="&#xcc;" horiz-adv-x="497" d="M35 1785.5q0 26.5 18.5 44t42.5 17.5q23 0 56 -28l202 -158q39 -31 39 -57q0 -23 -18.5 -43.5t-40.5 -20.5q-18 0 -60 29l-198 157q-41 33 -41 59.5zM184 59v1276q0 63 64 64q66 0 65 -64v-1276q0 -66 -65 -65q-64 -1 -64 65z" />
<glyph unicode="&#xcd;" horiz-adv-x="497" d="M111 1604q0 25 41 57l194 154q41 33 62 32q25 0 43 -18.5t18 -42.5q0 -27 -39 -60l-201 -157q-37 -29 -55 -29q-25 0 -44 18.5t-19 45.5zM184 59v1276q0 63 64 64q66 0 65 -64v-1276q0 -66 -65 -65q-64 -1 -64 65z" />
<glyph unicode="&#xce;" horiz-adv-x="497" d="M-45 1591q0 33 45 62l178 116q35 25 66 25q27 0 65 -25l172 -110q51 -33 51 -64q0 -23 -14 -40t-35 -17q-16 0 -41 14l-198 129l-189 -122q-31 -20 -51 -20.5t-34.5 14.5t-14.5 38zM184 59v1276q0 63 64 64q66 0 65 -64v-1276q0 -66 -65 -65q-64 -1 -64 65z" />
<glyph unicode="&#xcf;" horiz-adv-x="497" d="M-20 1626q0 35 25.5 60.5t60.5 25.5q37 0 61.5 -24.5t24.5 -61.5t-25 -61.5t-61 -24.5q-35 0 -60.5 25.5t-25.5 60.5zM184 59v1276q0 63 64 64q66 0 65 -64v-1276q0 -66 -65 -65q-64 -1 -64 65zM342 1626q0 35 25.5 60.5t60.5 25.5q37 0 61.5 -24.5t24.5 -61.5 t-24.5 -61.5t-61.5 -24.5q-35 0 -60.5 25.5t-25.5 60.5z" />
<glyph unicode="&#xd0;" horiz-adv-x="1310" d="M33 725q0 61 65 61h86v471q0 63 36 99.5t102 36.5h258q303 0 471 -180.5t168 -477.5q0 -326 -169 -530.5t-470 -204.5h-258q-66 0 -102 36t-36 99v529h-86q-65 0 -65 61zM313 158q0 -31 27 -31h246q250 0 377 165t127 433q0 250 -126 395.5t-378 145.5h-246 q-27 0 -27 -31v-449h318q66 0 65.5 -61t-65.5 -61h-318v-506z" />
<glyph unicode="&#xd1;" horiz-adv-x="1359" d="M184 57v1231q0 53 30 82t77 29q66 0 96 -56l668 -1189v1181q0 63 59 64q61 0 62 -64v-1239q0 -43 -28 -72.5t-79 -29.5q-61 0 -94 57l-670 1192v-1186q0 -63 -59 -63q-62 0 -62 63zM418 1595q0 37 56 79t118 42q43 0 119.5 -30.5t117.5 -30.5q33 0 67 30.5t52 30.5 q25 0 42.5 -15t17.5 -40q0 -37 -56.5 -79t-117.5 -42q-41 0 -119 31t-117 31q-33 0 -67.5 -31t-53.5 -31q-25 0 -42 15t-17 40z" />
<glyph unicode="&#xd2;" horiz-adv-x="1355" d="M92 696q0 317 158 517t430 200q188 0 323.5 -101.5t198 -260t62.5 -355.5q0 -193 -61.5 -351.5t-198 -261.5t-324.5 -103q-190 0 -326.5 103t-199 261.5t-62.5 351.5zM221 696q0 -246 119 -420t338 -174q223 0 340 175.5t117 419t-117 418.5t-340 175t-340 -175 t-117 -419zM442 1785.5q0 26.5 18.5 44t43.5 17.5q23 0 55 -28l203 -158q39 -31 39 -57q0 -23 -18.5 -43.5t-41.5 -20.5q-18 0 -59 29l-199 157q-41 33 -41 59.5z" />
<glyph unicode="&#xd3;" horiz-adv-x="1355" d="M92 696q0 317 158 517t430 200q188 0 323.5 -101.5t198 -260t62.5 -355.5q0 -193 -61.5 -351.5t-198 -261.5t-324.5 -103q-190 0 -326.5 103t-199 261.5t-62.5 351.5zM221 696q0 -246 119 -420t338 -174q223 0 340 175.5t117 419t-117 418.5t-340 175t-340 -175 t-117 -419zM539 1604q0 25 41 57l194 154q41 33 62 32q25 0 43 -18.5t18 -42.5q0 -27 -39 -60l-201 -157q-37 -29 -55 -29q-25 0 -44 18.5t-19 45.5z" />
<glyph unicode="&#xd4;" horiz-adv-x="1355" d="M92 696q0 317 158 517t430 200q188 0 323.5 -101.5t198 -260t62.5 -355.5q0 -193 -61.5 -351.5t-198 -261.5t-324.5 -103q-190 0 -326.5 103t-199 261.5t-62.5 351.5zM221 696q0 -246 119 -420t338 -174q223 0 340 175.5t117 419t-117 418.5t-340 175t-340 -175 t-117 -419zM387 1591q0 33 45 62l178 116q35 25 66 25q27 0 65 -25l172 -110q51 -33 52 -64q0 -23 -14.5 -40t-35.5 -17q-16 0 -41 14l-198 129l-189 -122q-31 -20 -51 -21q-18 0 -33.5 15t-15.5 38z" />
<glyph unicode="&#xd5;" horiz-adv-x="1355" d="M92 696q0 317 158 517t430 200q188 0 323.5 -101.5t198 -260t62.5 -355.5q0 -193 -61.5 -351.5t-198 -261.5t-324.5 -103q-190 0 -326.5 103t-199 261.5t-62.5 351.5zM221 696q0 -246 119 -420t338 -174q223 0 340 175.5t117 419t-117 418.5t-340 175t-340 -175 t-117 -419zM381 1595q0 37 56.5 79t117.5 42q43 0 120 -30.5t118 -30.5q33 0 66.5 30.5t51.5 30.5q25 0 42.5 -15t17.5 -40q0 -37 -56.5 -79t-117.5 -42q-41 0 -119 31t-117 31q-33 0 -67.5 -31t-53.5 -31q-25 0 -42 15t-17 40z" />
<glyph unicode="&#xd6;" horiz-adv-x="1355" d="M92 696q0 317 158 517t430 200q188 0 323.5 -101.5t198 -260t62.5 -355.5q0 -193 -61.5 -351.5t-198 -261.5t-324.5 -103q-190 0 -326.5 103t-199 261.5t-62.5 351.5zM221 696q0 -246 119 -420t338 -174q223 0 340 175.5t117 419t-117 418.5t-340 175t-340 -175 t-117 -419zM403 1626q0 35 26 60.5t60 25.5q37 0 61.5 -24.5t24.5 -61.5t-24.5 -61.5t-61.5 -24.5q-35 0 -60.5 25.5t-25.5 60.5zM766 1626q0 35 25.5 60.5t60.5 25.5q37 0 61.5 -24.5t24.5 -61.5t-24.5 -61.5t-61.5 -24.5q-35 0 -60.5 25.5t-25.5 60.5z" />
<glyph unicode="&#xd7;" d="M121 883q0 20 18 39q20 20 39 20q23 0 49 -27l316 -317l315 315q29 29 45 29q23 0 43 -20q18 -18 19 -39q0 -23 -25 -47l-317 -318l317 -315q25 -25 25 -49q0 -18 -19 -39q-20 -18 -39 -19q-25 0 -49 25l-315 317l-316 -315q-27 -27 -45 -27q-20 0 -41 21q-18 18 -18 39 q0 23 24 47l316 315l-318 316q-24 24 -24 49z" />
<glyph unicode="&#xd8;" horiz-adv-x="1355" d="M92 696q0 309 162 513t426 204q166 0 297 -82l82 139q23 37 45 37q14 0 31 -10q31 -18 30 -43q0 -16 -12 -37l-90 -155q201 -205 201 -566q0 -193 -61.5 -351.5t-198 -261.5t-324.5 -103q-174 0 -307 88l-84 -148q-18 -35 -47 -35q-16 0 -31 11q-29 16 -29 41q0 14 13 38 l94 162q-197 203 -197 559zM221 696q0 -274 135 -442l557 967q-98 70 -235 69q-223 0 -340 -175t-117 -419zM436 176q98 -74 242 -74q223 0 340 175.5t117 418.5q0 283 -140 449z" />
<glyph unicode="&#xd9;" horiz-adv-x="1318" d="M180 438v897q0 63 64 64q66 0 65 -64v-897q0 -160 96.5 -248t252 -88t254 89.5t98.5 246.5v897q0 63 63 64q66 0 66 -64v-897q0 -211 -135.5 -334.5t-346.5 -123.5t-344 122.5t-133 335.5zM453 1785.5q0 26.5 18 44t43 17.5q23 0 55 -28l203 -158q39 -31 39 -57 q0 -23 -18.5 -43.5t-40.5 -20.5q-18 0 -60 29l-198 157q-41 33 -41 59.5z" />
<glyph unicode="&#xda;" horiz-adv-x="1318" d="M180 438v897q0 63 64 64q66 0 65 -64v-897q0 -160 96.5 -248t252 -88t254 89.5t98.5 246.5v897q0 63 63 64q66 0 66 -64v-897q0 -211 -135.5 -334.5t-346.5 -123.5t-344 122.5t-133 335.5zM524 1604q0 25 41 57l195 154q41 33 61 32q25 0 43.5 -18.5t18.5 -42.5 q0 -27 -39 -60l-201 -157q-37 -29 -55 -29q-25 0 -44.5 18.5t-19.5 45.5z" />
<glyph unicode="&#xdb;" horiz-adv-x="1318" d="M180 438v897q0 63 64 64q66 0 65 -64v-897q0 -160 96.5 -248t252 -88t254 89.5t98.5 246.5v897q0 63 63 64q66 0 66 -64v-897q0 -211 -135.5 -334.5t-346.5 -123.5t-344 122.5t-133 335.5zM381 1591q0 33 45 62l178 116q35 25 66 25q27 0 65 -25l172 -110q51 -33 51 -64 q0 -23 -14 -40t-35 -17q-16 0 -41 14l-198 129l-189 -122q-31 -20 -51 -20.5t-34.5 14.5t-14.5 38z" />
<glyph unicode="&#xdc;" horiz-adv-x="1318" d="M180 438v897q0 63 64 64q66 0 65 -64v-897q0 -160 96.5 -248t252 -88t254 89.5t98.5 246.5v897q0 63 63 64q66 0 66 -64v-897q0 -211 -135.5 -334.5t-346.5 -123.5t-344 122.5t-133 335.5zM395 1626q0 35 25.5 60.5t60.5 25.5q37 0 61.5 -24.5t24.5 -61.5t-24.5 -61.5 t-61.5 -24.5q-35 0 -60.5 25.5t-25.5 60.5zM758 1626q0 35 25.5 60.5t60.5 25.5q37 0 61.5 -24.5t24.5 -61.5t-24.5 -61.5t-61.5 -24.5q-35 0 -60.5 25.5t-25.5 60.5z" />
<glyph unicode="&#xdd;" horiz-adv-x="1028" d="M49 1337q0 61 66 62q63 0 63 -64q0 -154 93.5 -349t228.5 -335q137 137 240.5 342t109.5 344q2 61 65.5 61.5t63.5 -65.5q0 -156 -129 -400.5t-285 -385.5v-490q0 -63 -63 -63q-66 0 -66 63v488q-150 137 -268.5 374.5t-118.5 417.5zM387 1604q0 25 41 57l195 154 q41 33 61 32q25 0 43 -18.5t18 -42.5q0 -27 -38 -60l-201 -157q-37 -29 -55 -29q-25 0 -44.5 18.5t-19.5 45.5z" />
<glyph unicode="&#xde;" horiz-adv-x="1107" d="M184 59v1276q0 63 64 64q66 0 65 -64v-229h283q211 0 320.5 -104.5t109.5 -305.5q0 -182 -120 -290.5t-324 -108.5h-269v-238q0 -66 -65 -65q-64 -1 -64 65zM313 424h279q143 0 224 72.5t81 199.5q0 145 -72.5 214t-230.5 69h-281v-555z" />
<glyph unicode="&#xdf;" horiz-adv-x="1058" d="M152 59v1053q0 180 99 302t298 122q174 0 273.5 -106.5t99.5 -276.5q0 -123 -68 -218t-162 -132q143 -31 229.5 -134.5t86.5 -271.5q0 -193 -122 -305t-298 -112q-92 0 -142 24q-53 25 -28 80q20 53 76 33q49 -16 84 -17q139 0 221 76t82 225q0 127 -77 210t-210 106 q-61 8 -62 65q0 49 41 66q221 90 222 303q0 119 -66.5 191.5t-179.5 72.5q-143 0 -206.5 -89t-63.5 -224v-1043q0 -66 -63.5 -66t-63.5 66z" />
<glyph unicode="&#xe0;" horiz-adv-x="1116" d="M92 524q0 231 111.5 386t333.5 155q205 0 301 -162v86q0 61 63.5 61.5t63.5 -61.5v-932q0 -63 -63.5 -63t-63.5 63v99q-100 -176 -315.5 -176t-323 155.5t-107.5 388.5zM219 524q0 -178 74 -301t248 -123q131 0 214 89.5t83 230.5v203q0 141 -83 231t-214 90 q-162 0 -242 -125t-80 -295zM322 1478.5q0 26.5 18 44t43 17.5q23 0 55 -29l203 -157q39 -31 39 -58q0 -23 -18.5 -43t-40.5 -20q-18 0 -60 29l-199 157q-40 33 -40 59.5z" />
<glyph unicode="&#xe1;" horiz-adv-x="1116" d="M92 524q0 231 111.5 386t333.5 155q205 0 301 -162v86q0 61 63.5 61.5t63.5 -61.5v-932q0 -63 -63.5 -63t-63.5 63v99q-100 -176 -315.5 -176t-323 155.5t-107.5 388.5zM219 524q0 -178 74 -301t248 -123q131 0 214 89.5t83 230.5v203q0 141 -83 231t-214 90 q-162 0 -242 -125t-80 -295zM440 1296q0 25 41 58l195 153q41 33 61 33q25 0 43.5 -18.5t18.5 -42.5q0 -27 -39 -60l-201 -157q-37 -29 -55 -29q-25 0 -44.5 18t-19.5 45z" />
<glyph unicode="&#xe2;" horiz-adv-x="1116" d="M92 524q0 231 111.5 386t333.5 155q205 0 301 -162v86q0 61 63.5 61.5t63.5 -61.5v-932q0 -63 -63.5 -63t-63.5 63v99q-100 -176 -315.5 -176t-323 155.5t-107.5 388.5zM219 524q0 -178 74 -301t248 -123q131 0 214 89.5t83 230.5v203q0 141 -83 231t-214 90 q-162 0 -242 -125t-80 -295zM252 1284q0 33 45 62l178 116q35 25 66 25q27 0 65 -25l172 -110q51 -33 51 -64q0 -23 -14 -40t-35 -17q-16 0 -41 14l-198 129l-189 -123q-31 -20 -51 -20q-18 0 -33.5 15t-15.5 38z" />
<glyph unicode="&#xe3;" horiz-adv-x="1116" d="M92 524q0 231 111.5 386t333.5 155q205 0 301 -162v86q0 61 63.5 61.5t63.5 -61.5v-932q0 -63 -63.5 -63t-63.5 63v99q-100 -176 -315.5 -176t-323 155.5t-107.5 388.5zM219 524q0 -178 74 -301t248 -123q131 0 214 89.5t83 230.5v203q0 141 -83 231t-214 90 q-162 0 -242 -125t-80 -295zM258 1288q0 37 56.5 79t117.5 42q43 0 120 -30.5t118 -30.5q33 0 66.5 30.5t51.5 30.5q25 0 42.5 -15.5t17.5 -39.5q0 -37 -56.5 -79t-117.5 -42q-41 0 -119 30.5t-117 30.5q-33 0 -67.5 -30.5t-53.5 -30.5q-25 0 -42 15t-17 40z" />
<glyph unicode="&#xe4;" horiz-adv-x="1116" d="M92 524q0 231 111.5 386t333.5 155q205 0 301 -162v86q0 61 63.5 61.5t63.5 -61.5v-932q0 -63 -63.5 -63t-63.5 63v99q-100 -176 -315.5 -176t-323 155.5t-107.5 388.5zM219 524q0 -178 74 -301t248 -123q131 0 214 89.5t83 230.5v203q0 141 -83 231t-214 90 q-162 0 -242 -125t-80 -295zM289 1319q0 35 25.5 60.5t60.5 25.5q37 0 61.5 -24.5t24.5 -61.5t-24.5 -61.5t-61.5 -24.5q-35 0 -60.5 25.5t-25.5 60.5zM651 1319q0 35 25.5 60.5t60.5 25.5q37 0 61.5 -24.5t24.5 -61.5t-24.5 -61.5t-61.5 -24.5q-35 0 -60.5 25.5t-25.5 60.5 z" />
<glyph unicode="&#xe5;" horiz-adv-x="1116" d="M92 524q0 231 111.5 386t333.5 155q205 0 301 -162v86q0 61 63.5 61.5t63.5 -61.5v-932q0 -63 -63.5 -63t-63.5 63v99q-100 -176 -315.5 -176t-323 155.5t-107.5 388.5zM219 524q0 -178 74 -301t248 -123q131 0 214 89.5t83 230.5v203q0 141 -83 231t-214 90 q-162 0 -242 -125t-80 -295zM379 1423.5q0 77.5 54 134t130 56.5t130.5 -56.5t54.5 -134t-54.5 -134t-130.5 -56.5t-130 56.5t-54 134zM453 1423q0 -47 32.5 -80.5t77.5 -33.5t78 33.5t33 80.5t-33 81t-78 34t-77.5 -34t-32.5 -81z" />
<glyph unicode="&#xe6;" horiz-adv-x="1730" d="M74 270q0 205 176 285t532 80v31q0 106 -67.5 192t-210.5 86q-131 0 -256 -86q-41 -29 -62 -31q-20 0 -36.5 15.5t-16.5 42.5q0 37 43 67q154 113 326 113q145 0 235 -63.5t125 -165.5q131 229 379 229q188 0 296 -125t108 -326q0 -117 -97 -116h-639q0 -180 95.5 -289 t244.5 -109q129 0 238 70q35 23 49 23q25 0 41 -20.5t16 -47.5q0 -20 -28 -45q-127 -100 -318 -100q-293 0 -409 274q-66 -135 -177.5 -204.5t-248.5 -69.5q-170 0 -254 92t-84 198zM201 276q0 -70 54 -123t161 -53q156 0 261 122t105 294q-326 0 -453.5 -58.5 t-127.5 -181.5zM909 616h609q0 137 -72 232.5t-209 95.5q-139 0 -229.5 -93.5t-98.5 -234.5z" />
<glyph unicode="&#xe7;" horiz-adv-x="987" d="M92 522q0 248 134 395.5t339 147.5q199 0 316 -117q25 -25 24.5 -49.5t-19 -43.5t-42.5 -19q-16 0 -56 28q-113 80 -227 80q-152 0 -247 -112.5t-95 -309.5q0 -199 92 -310.5t244 -111.5q125 0 236 86q39 29 57 29q27 0 43 -20.5t16 -44.5q0 -29 -28 -52 q-121 -104 -287 -116l-43 -84q29 4 47 4q63 0 96 -35t33 -92q0 -70 -49 -114t-144 -44q-66 0 -104.5 20.5t-38.5 47.5q0 18 10.5 30.5t26.5 12.5q8 0 39 -11q43 -16 76 -16q82 0 82 66q0 61 -80 61q-14 0 -39 -2t-33 -2q-31 0 -31 29q0 14 13 38l47 93q-186 16 -297 161.5 t-111 376.5z" />
<glyph unicode="&#xe8;" horiz-adv-x="1042" d="M92 512q0 233 121 393t340 160q188 0 295.5 -127t107.5 -338q0 -117 -96 -117h-639q0 -170 96.5 -276.5t243.5 -106.5q125 0 240 72q33 20 47 21q25 0 41 -21.5t16 -44.5t-28 -47q-127 -100 -318 -100q-219 0 -343 146t-124 386zM225 602h604q2 145 -70.5 243.5 t-209.5 98.5q-143 0 -229.5 -98.5t-94.5 -243.5zM311 1476.5q0 26.5 18.5 44t43.5 17.5q23 0 55 -29l203 -157q39 -31 39 -58q0 -23 -18.5 -43t-41.5 -20q-18 0 -59 29l-199 157q-41 33 -41 59.5z" />
<glyph unicode="&#xe9;" horiz-adv-x="1042" d="M92 512q0 233 121 393t340 160q188 0 295.5 -127t107.5 -338q0 -117 -96 -117h-639q0 -170 96.5 -276.5t243.5 -106.5q125 0 240 72q33 20 47 21q25 0 41 -21.5t16 -44.5t-28 -47q-127 -100 -318 -100q-219 0 -343 146t-124 386zM225 602h604q2 145 -70.5 243.5 t-209.5 98.5q-143 0 -229.5 -98.5t-94.5 -243.5zM406 1296q0 25 40 58l195 153q41 33 61 33q25 0 43.5 -18.5t18.5 -42.5q0 -27 -39 -60l-201 -157q-37 -29 -55 -29q-25 0 -44 18t-19 45z" />
<glyph unicode="&#xea;" horiz-adv-x="1042" d="M92 512q0 233 121 393t340 160q188 0 295.5 -127t107.5 -338q0 -117 -96 -117h-639q0 -170 96.5 -276.5t243.5 -106.5q125 0 240 72q33 20 47 21q25 0 41 -21.5t16 -44.5t-28 -47q-127 -100 -318 -100q-219 0 -343 146t-124 386zM225 602h604q2 145 -70.5 243.5 t-209.5 98.5q-143 0 -229.5 -98.5t-94.5 -243.5zM256 1284q0 33 45 62l178 116q35 25 66 25q27 0 65 -25l172 -110q51 -33 52 -64q0 -23 -14.5 -40t-35.5 -17q-16 0 -41 14l-198 129l-189 -123q-31 -20 -51 -20q-18 0 -33.5 15t-15.5 38z" />
<glyph unicode="&#xeb;" horiz-adv-x="1042" d="M92 512q0 233 121 393t340 160q188 0 295.5 -127t107.5 -338q0 -117 -96 -117h-639q0 -170 96.5 -276.5t243.5 -106.5q125 0 240 72q33 20 47 21q25 0 41 -21.5t16 -44.5t-28 -47q-127 -100 -318 -100q-219 0 -343 146t-124 386zM225 602h604q2 145 -70.5 243.5 t-209.5 98.5q-143 0 -229.5 -98.5t-94.5 -243.5zM268 1319q0 35 25.5 60.5t60.5 25.5q37 0 61.5 -24.5t24.5 -61.5t-24.5 -61.5t-61.5 -24.5q-35 0 -60.5 25.5t-25.5 60.5zM631 1319q0 35 25.5 60.5t60.5 25.5q37 0 61.5 -24.5t24.5 -61.5t-24.5 -61.5t-61.5 -24.5 q-35 0 -60.5 25.5t-25.5 60.5z" />
<glyph unicode="&#xec;" horiz-adv-x="430" d="M27 1478.5q0 26.5 18 44t43 17.5q23 0 55 -29l203 -157q39 -31 39 -58q0 -23 -18.5 -43t-40.5 -20q-18 0 -60 29l-198 157q-41 33 -41 59.5zM152 57v932q0 61 63.5 61.5t63.5 -61.5v-932q0 -63 -66 -63q-61 0 -61 63z" />
<glyph unicode="&#xed;" horiz-adv-x="430" d="M74 1296q0 25 41 58l194 153q41 33 62 33q25 0 43 -18.5t18 -42.5q0 -27 -39 -60l-200 -157q-37 -29 -56 -29q-25 0 -44 18t-19 45zM152 57v932q0 61 63.5 61.5t63.5 -61.5v-932q0 -63 -66 -63q-61 0 -61 63z" />
<glyph unicode="&#xee;" horiz-adv-x="430" d="M-74 1284q0 33 45 62l179 116q35 25 65 25q27 0 66 -25l172 -110q51 -33 51 -64q0 -23 -14.5 -40t-34.5 -17q-16 0 -41 14l-199 129l-188 -123q-31 -20 -51.5 -20t-35 15t-14.5 38zM152 57v932q0 61 63.5 61.5t63.5 -61.5v-932q0 -63 -66 -63q-61 0 -61 63z" />
<glyph unicode="&#xef;" horiz-adv-x="430" d="M-41 1319q0 35 25.5 60.5t60.5 25.5q37 0 61.5 -24.5t24.5 -61.5t-24.5 -61.5t-61.5 -24.5q-35 0 -60.5 25.5t-25.5 60.5zM152 57v932q0 61 63.5 61.5t63.5 -61.5v-932q0 -63 -66 -63q-61 0 -61 63zM322 1319q0 35 25.5 60.5t60.5 25.5q37 0 61.5 -24.5t24.5 -61.5 t-25 -61.5t-61 -24.5q-35 0 -60.5 25.5t-25.5 60.5z" />
<glyph unicode="&#xf0;" horiz-adv-x="1099" d="M92 500q0 250 128 391t317 141q150 0 251 -84q-100 193 -274 320l-158 -111q-25 -18 -45 -18q-18 0 -35.5 20.5t-17.5 40.5q0 29 33 49l127 86q-39 25 -158 78q-47 18 -47 49t16.5 52.5t40.5 21.5q18 0 49 -12q98 -37 205 -111l148 103q25 18 45 18q25 0 41 -29 q12 -18 12 -32q0 -25 -35 -50l-117 -82q389 -309 390 -815q0 -266 -142 -413q-125 -133 -317 -133q-190 0 -316 133q-141 147 -141 387zM219 500q0 -193 103 -301q88 -98 227 -99q137 0 229 99q102 111 103 317q0 55 -7.5 104.5t-29 104.5t-55 94t-95 65.5t-143.5 26.5 q-156 0 -244 -108t-88 -303z" />
<glyph unicode="&#xf1;" horiz-adv-x="1114" d="M152 57v930q0 63 63.5 63.5t63.5 -63.5v-108q45 82 132 134t197 52q184 0 271.5 -104.5t87.5 -266.5v-637q0 -63 -62 -63q-66 0 -65 63v602q0 285 -248 285q-135 0 -224 -96t-89 -268v-523q0 -63 -63.5 -63t-63.5 63zM258 1288q0 37 56.5 79t117.5 42q43 0 120 -30.5 t118 -30.5q33 0 66.5 30.5t51.5 30.5q25 0 42.5 -15.5t17.5 -39.5q0 -37 -56.5 -79t-117.5 -42q-41 0 -119 30.5t-117 30.5q-33 0 -67.5 -30.5t-53.5 -30.5q-25 0 -42 15t-17 40z" />
<glyph unicode="&#xf2;" horiz-adv-x="1099" d="M92 522q0 274 146 420q127 123 311 123q188 0 311 -123q147 -143 148 -420q0 -262 -142 -409q-125 -133 -317 -133q-190 0 -316 133q-141 147 -141 409zM219 522q0 -211 103 -319q92 -102 227 -103q133 0 229 103q102 111 103 319q0 217 -105 328q-90 94 -227 94 q-135 0 -225 -94q-105 -107 -105 -328zM354 1478.5q0 26.5 18.5 44t43.5 17.5q23 0 55 -29l203 -157q39 -31 39 -58q0 -23 -18.5 -43t-41.5 -20q-18 0 -59 29l-199 157q-41 33 -41 59.5z" />
<glyph unicode="&#xf3;" horiz-adv-x="1099" d="M92 522q0 274 146 420q127 123 311 123q188 0 311 -123q147 -143 148 -420q0 -262 -142 -409q-125 -133 -317 -133q-190 0 -316 133q-141 147 -141 409zM219 522q0 -211 103 -319q92 -102 227 -103q133 0 229 103q102 111 103 319q0 217 -105 328q-90 94 -227 94 q-135 0 -225 -94q-105 -107 -105 -328zM399 1296q0 25 41 58l195 153q41 33 61 33q25 0 43.5 -18.5t18.5 -42.5q0 -27 -39 -60l-201 -157q-37 -29 -55 -29q-25 0 -44.5 18t-19.5 45z" />
<glyph unicode="&#xf4;" horiz-adv-x="1099" d="M92 522q0 274 146 420q127 123 311 123q188 0 311 -123q147 -143 148 -420q0 -262 -142 -409q-125 -133 -317 -133q-190 0 -316 133q-141 147 -141 409zM219 522q0 -211 103 -319q92 -102 227 -103q133 0 229 103q102 111 103 319q0 217 -105 328q-90 94 -227 94 q-135 0 -225 -94q-105 -107 -105 -328zM248 1284q0 33 45 62l178 116q35 25 66 25q27 0 65 -25l172 -110q51 -33 51 -64q0 -23 -14 -40t-35 -17q-16 0 -41 14l-198 129l-189 -123q-31 -20 -51 -20q-18 0 -33.5 15t-15.5 38z" />
<glyph unicode="&#xf5;" horiz-adv-x="1099" d="M92 522q0 274 146 420q127 123 311 123q188 0 311 -123q147 -143 148 -420q0 -262 -142 -409q-125 -133 -317 -133q-190 0 -316 133q-141 147 -141 409zM219 522q0 -211 103 -319q92 -102 227 -103q133 0 229 103q102 111 103 319q0 217 -105 328q-90 94 -227 94 q-135 0 -225 -94q-105 -107 -105 -328zM244 1288q0 37 56 79t118 42q43 0 119.5 -30.5t117.5 -30.5q33 0 67 30.5t52 30.5q25 0 42.5 -15.5t17.5 -39.5q0 -37 -56.5 -79t-118.5 -42q-41 0 -118.5 30.5t-116.5 30.5q-33 0 -67.5 -30.5t-53.5 -30.5q-25 0 -42 15t-17 40z" />
<glyph unicode="&#xf6;" horiz-adv-x="1099" d="M92 522q0 274 146 420q127 123 311 123q188 0 311 -123q147 -143 148 -420q0 -262 -142 -409q-125 -133 -317 -133q-190 0 -316 133q-141 147 -141 409zM219 522q0 -211 103 -319q92 -102 227 -103q133 0 229 103q102 111 103 319q0 217 -105 328q-90 94 -227 94 q-135 0 -225 -94q-105 -107 -105 -328zM272 1319q0 35 26 60.5t60 25.5q37 0 61.5 -24.5t24.5 -61.5t-24.5 -61.5t-61.5 -24.5q-35 0 -60.5 25.5t-25.5 60.5zM635 1319q0 35 25.5 60.5t60.5 25.5q37 0 61.5 -24.5t24.5 -61.5t-24.5 -61.5t-61.5 -24.5q-35 0 -60.5 25.5 t-25.5 60.5z" />
<glyph unicode="&#xf7;" d="M57 518q0 57 66 57h840q66 0 65.5 -57t-65.5 -57h-840q-66 0 -66 57zM453 182q0 39 26.5 64.5t63.5 25.5t63.5 -26.5t26.5 -63.5q0 -35 -26.5 -61.5t-63.5 -26.5t-63.5 25.5t-26.5 62.5zM453 852q0 39 26.5 64.5t63.5 25.5t63.5 -26.5t26.5 -63.5q0 -35 -26.5 -61.5 t-63.5 -26.5t-63.5 25.5t-26.5 62.5z" />
<glyph unicode="&#xf8;" horiz-adv-x="1099" d="M92 522q0 274 146 420q127 123 311 123q150 0 260 -80l80 113q25 33 49 32q16 0 31 -12q25 -18 24 -37q0 -16 -16 -39l-90 -129q121 -145 121 -391q0 -262 -142 -409q-125 -133 -317 -133q-152 0 -260 81l-80 -112q-27 -37 -47 -37q-14 0 -29 12q-27 18 -27 39 q0 14 17 41l90 129q-121 145 -121 389zM219 522q0 -178 70 -280l448 641q-80 61 -188 61q-135 0 -225 -94q-105 -107 -105 -328zM360 164q82 -63 189 -64q135 0 229 101q102 111 103 321q0 174 -70 283z" />
<glyph unicode="&#xf9;" horiz-adv-x="1114" d="M147 367v620q0 63 62 64q66 0 65 -64v-612q0 -121 62.5 -198t183.5 -77q147 0 231.5 98.5t84.5 260.5v528q0 63 63.5 63.5t63.5 -63.5v-930q0 -63 -63.5 -63t-63.5 63v109q-106 -186 -334 -186q-178 0 -266.5 108.5t-88.5 278.5zM326 1478.5q0 26.5 18 44t43 17.5 q23 0 55 -29l203 -157q39 -31 39 -58q0 -23 -18.5 -43t-40.5 -20q-18 0 -60 29l-198 157q-41 33 -41 59.5z" />
<glyph unicode="&#xfa;" horiz-adv-x="1114" d="M147 367v620q0 63 62 64q66 0 65 -64v-612q0 -121 62.5 -198t183.5 -77q147 0 231.5 98.5t84.5 260.5v528q0 63 63.5 63.5t63.5 -63.5v-930q0 -63 -63.5 -63t-63.5 63v109q-106 -186 -334 -186q-178 0 -266.5 108.5t-88.5 278.5zM438 1296q0 25 41 58l195 153 q41 33 61 33q25 0 43.5 -18.5t18.5 -42.5q0 -27 -39 -60l-201 -157q-37 -29 -55 -29q-25 0 -44.5 18t-19.5 45z" />
<glyph unicode="&#xfb;" horiz-adv-x="1114" d="M147 367v620q0 63 62 64q66 0 65 -64v-612q0 -121 62.5 -198t183.5 -77q147 0 231.5 98.5t84.5 260.5v528q0 63 63.5 63.5t63.5 -63.5v-930q0 -63 -63.5 -63t-63.5 63v109q-106 -186 -334 -186q-178 0 -266.5 108.5t-88.5 278.5zM262 1284q0 33 45 62l178 116 q35 25 66 25q27 0 65 -25l172 -110q51 -33 52 -64q0 -23 -14.5 -40t-34.5 -17q-16 0 -41 14l-199 129l-189 -123q-31 -20 -51 -20t-34.5 15t-14.5 38z" />
<glyph unicode="&#xfc;" horiz-adv-x="1114" d="M147 367v620q0 63 62 64q66 0 65 -64v-612q0 -121 62.5 -198t183.5 -77q147 0 231.5 98.5t84.5 260.5v528q0 63 63.5 63.5t63.5 -63.5v-930q0 -63 -63.5 -63t-63.5 63v109q-106 -186 -334 -186q-178 0 -266.5 108.5t-88.5 278.5zM287 1319q0 35 25.5 60.5t60.5 25.5 q37 0 61.5 -24.5t24.5 -61.5t-24.5 -61.5t-61.5 -24.5q-35 0 -60.5 25.5t-25.5 60.5zM649 1319q0 35 25.5 60.5t60.5 25.5q37 0 61.5 -24.5t24.5 -61.5t-24.5 -61.5t-61.5 -24.5q-35 0 -60.5 25.5t-25.5 60.5z" />
<glyph unicode="&#xfd;" horiz-adv-x="970" d="M-2 -371q0 20 10 31.5t47 20.5q131 35 340 356q-145 250 -254 592q-55 176 -82 305q-8 45 -8 57q0 29 20.5 45.5t51.5 16.5q49 0 57 -52q31 -168 74 -305q106 -346 211 -549q127 229 233 531q61 174 95 326q10 49 55 49q72 0 72 -56q0 -20 -13 -69q-61 -227 -167.5 -475 t-223.5 -443q-94 -162 -194.5 -273.5t-157.5 -139.5q-61 -31 -115 -31q-20 0 -35.5 17t-15.5 46zM397 1296q0 25 41 58l195 153q41 33 61 33q25 0 43.5 -18.5t18.5 -42.5q0 -27 -39 -60l-201 -157q-37 -29 -55 -29q-25 0 -44.5 18t-19.5 45z" />
<glyph unicode="&#xfe;" horiz-adv-x="1116" d="M152 -371v1844q0 63 61 63q66 0 66 -63v-562q37 63 115.5 108.5t180.5 45.5q209 0 329 -138.5t120 -394.5q0 -254 -122 -403t-329 -149q-104 0 -180 46t-114 113v-510q0 -61 -66 -61q-61 0 -61 61zM279 418q0 -139 82.5 -228.5t213.5 -89.5q145 0 233.5 117t88.5 315 q0 195 -86 303.5t-236 108.5q-131 0 -213.5 -89t-82.5 -228v-209z" />
<glyph unicode="&#xff;" horiz-adv-x="970" d="M-2 -371q0 20 10 31.5t47 20.5q131 35 340 356q-145 250 -254 592q-55 176 -82 305q-8 45 -8 57q0 29 20.5 45.5t51.5 16.5q49 0 57 -52q31 -168 74 -305q106 -346 211 -549q127 229 233 531q61 174 95 326q10 49 55 49q72 0 72 -56q0 -20 -13 -69q-61 -227 -167.5 -475 t-223.5 -443q-94 -162 -194.5 -273.5t-157.5 -139.5q-61 -31 -115 -31q-20 0 -35.5 17t-15.5 46zM221 1319q0 35 25.5 60.5t60.5 25.5q37 0 61.5 -24.5t24.5 -61.5t-24.5 -61.5t-61.5 -24.5q-35 0 -60.5 25.5t-25.5 60.5zM584 1319q0 35 25.5 60.5t60.5 25.5 q37 0 61.5 -24.5t24.5 -61.5t-24.5 -61.5t-61.5 -24.5q-35 0 -60.5 25.5t-25.5 60.5z" />
<glyph unicode="&#x152;" horiz-adv-x="1851" d="M92 696q0 315 143.5 516t403.5 201q246 0 365 -178v2q0 156 149 156h551q66 0 65.5 -63.5t-65.5 -63.5h-537q-35 0 -34 -39v-439h505q63 0 64 -65q0 -61 -64 -61h-505v-504q0 -31 26 -31h545q66 0 65 -61q0 -66 -65 -66h-563q-74 0 -105.5 38t-31.5 120 q-119 -178 -365 -178q-143 0 -251.5 59t-171 161.5t-93.5 226.5t-31 269zM221 696q0 -121 22.5 -223t69.5 -188t130 -135.5t194 -49.5q158 0 262.5 99.5t104.5 216.5v542q0 133 -110 233.5t-257 100.5q-115 0 -199 -50t-130 -138t-66.5 -188.5t-20.5 -219.5z" />
<glyph unicode="&#x153;" horiz-adv-x="1792" d="M92 522q0 274 139 420q123 123 301 123q180 0 299 -123q53 -57 82 -119q121 242 390 242q188 0 295.5 -127t107.5 -338q0 -117 -96 -117h-639q0 -170 96 -276.5t244 -106.5q121 0 237 70q35 23 49 23q23 0 40.5 -20.5t17.5 -45.5q0 -23 -29 -47q-127 -100 -317 -100 q-283 0 -402 237q-29 -61 -69 -104q-121 -133 -305.5 -133t-305.5 133q-135 147 -135 409zM219 522q0 -213 96 -321q86 -102 213 -103q125 0 215 103q96 111 97 321q0 217 -99 328q-84 94 -213 94q-127 0 -211 -94q-98 -107 -98 -328zM975 602h604q2 145 -70.5 244.5 t-210.5 99.5q-143 0 -229 -99.5t-94 -244.5z" />
<glyph unicode="&#x178;" horiz-adv-x="1028" d="M49 1337q0 61 66 62q63 0 63 -64q0 -154 93.5 -349t228.5 -335q137 137 240.5 342t109.5 344q2 61 65.5 61.5t63.5 -65.5q0 -156 -129 -400.5t-285 -385.5v-490q0 -63 -63 -63q-66 0 -66 63v488q-150 137 -268.5 374.5t-118.5 417.5zM236 1626q0 35 25.5 60.5t60.5 25.5 q37 0 61.5 -24.5t24.5 -61.5t-25 -61.5t-61 -24.5q-35 0 -60.5 25.5t-25.5 60.5zM598 1626q0 35 25.5 60.5t60.5 25.5q37 0 61.5 -24.5t24.5 -61.5t-24.5 -61.5t-61.5 -24.5q-35 0 -60.5 25.5t-25.5 60.5z" />
<glyph unicode="&#x2c6;" horiz-adv-x="942" d="M182 1284q0 33 45 62l179 116q35 25 65 25q27 0 66 -25l172 -110q51 -33 51 -64q0 -23 -14.5 -40t-34.5 -17q-16 0 -41 14l-199 129l-188 -123q-31 -20 -52 -20q-18 0 -33.5 15t-15.5 38z" />
<glyph unicode="&#x2dc;" horiz-adv-x="958" d="M184 1288q0 37 56.5 79t117.5 42q43 0 120 -30.5t118 -30.5q33 0 66.5 30.5t52.5 30.5q25 0 42 -15.5t17 -39.5q0 -37 -56 -79t-118 -42q-41 0 -119 30.5t-116 30.5q-33 0 -68 -30.5t-53 -30.5q-25 0 -42.5 15t-17.5 40z" />
<glyph unicode="&#x3bc;" horiz-adv-x="1118" d="M152 -369v1356q0 63 63.5 63.5t63.5 -63.5v-602q0 -145 67.5 -213t179.5 -68q137 0 225.5 94.5t88.5 266.5v522q0 63 63.5 63.5t63.5 -63.5v-930q0 -63 -63.5 -63t-63.5 63v109q-45 -82 -132 -134t-198 -52q-154 0 -231 94v-443q0 -63 -63.5 -63t-63.5 63z" />
<glyph unicode="&#x2000;" horiz-adv-x="923" />
<glyph unicode="&#x2001;" horiz-adv-x="1847" />
<glyph unicode="&#x2002;" horiz-adv-x="923" />
<glyph unicode="&#x2003;" horiz-adv-x="1847" />
<glyph unicode="&#x2004;" horiz-adv-x="614" />
<glyph unicode="&#x2005;" horiz-adv-x="460" />
<glyph unicode="&#x2006;" horiz-adv-x="307" />
<glyph unicode="&#x2007;" horiz-adv-x="307" />
<glyph unicode="&#x2008;" horiz-adv-x="229" />
<glyph unicode="&#x2009;" horiz-adv-x="368" />
<glyph unicode="&#x200a;" horiz-adv-x="102" />
<glyph unicode="&#x2010;" horiz-adv-x="737" d="M90 548.5q0 63.5 64 63.5h430q63 0 63 -63.5t-63 -63.5h-430q-64 0 -64 63.5z" />
<glyph unicode="&#x2011;" horiz-adv-x="737" d="M90 548.5q0 63.5 64 63.5h430q63 0 63 -63.5t-63 -63.5h-430q-64 0 -64 63.5z" />
<glyph unicode="&#x2012;" horiz-adv-x="737" d="M90 548.5q0 63.5 64 63.5h430q63 0 63 -63.5t-63 -63.5h-430q-64 0 -64 63.5z" />
<glyph unicode="&#x2013;" horiz-adv-x="999" d="M90 551q0 59 62 59h696q61 0 61 -59q0 -61 -61 -62h-696q-62 1 -62 62z" />
<glyph unicode="&#x2014;" horiz-adv-x="1601" d="M90 551q0 61 62 61h1298q61 0 61 -61q0 -59 -61 -59h-1298q-62 0 -62 59z" />
<glyph unicode="&#x2018;" horiz-adv-x="389" d="M102 1051q0 176 105 321q25 35 55 35q20 0 35.5 -14.5t15.5 -34.5q0 -18 -20 -55q-66 -104 -66 -263q0 -61 -59 -61q-66 0 -66 72z" />
<glyph unicode="&#x2019;" horiz-adv-x="389" d="M78 1026q0 18 20 55q66 104 66 262q0 61 59 62q66 0 66 -72q0 -176 -105 -321q-25 -35 -55 -35q-20 0 -35.5 14.5t-15.5 34.5z" />
<glyph unicode="&#x201a;" horiz-adv-x="405" d="M78 -209q0 18 20 55q66 104 66 263q0 61 59 61q66 0 66 -72q0 -176 -105 -321q-25 -35 -55 -35q-20 0 -35.5 14.5t-15.5 34.5z" />
<glyph unicode="&#x201c;" horiz-adv-x="677" d="M102 1051q0 176 105 321q25 35 55 35q20 0 35.5 -14.5t15.5 -34.5q0 -18 -20 -55q-66 -104 -66 -263q0 -61 -59 -61q-66 0 -66 72zM389 1051q0 176 105 321q25 35 55 35q20 0 35.5 -14.5t15.5 -34.5q0 -18 -20 -55q-66 -104 -66 -263q0 -61 -59 -61q-66 0 -66 72z" />
<glyph unicode="&#x201d;" horiz-adv-x="675" d="M78 1026q0 18 20 55q66 104 66 262q0 61 59 62q66 0 66 -72q0 -176 -105 -321q-25 -35 -55 -35q-20 0 -35.5 14.5t-15.5 34.5zM365 1026q0 18 20 55q66 104 66 262q0 61 59 62q66 0 65 -72q0 -176 -104 -321q-25 -35 -55 -35q-20 0 -35.5 14.5t-15.5 34.5z" />
<glyph unicode="&#x201e;" horiz-adv-x="655" d="M78 -213q0 18 20 55q66 104 66 262q0 61 59 62q66 0 66 -72q0 -176 -105 -321q-25 -35 -55 -35q-20 0 -35.5 14.5t-15.5 34.5zM365 -213q0 18 20 55q66 104 66 262q0 61 59 62q66 0 65 -72q0 -176 -104 -321q-25 -35 -55 -35q-20 0 -35.5 14.5t-15.5 34.5z" />
<glyph unicode="&#x2022;" horiz-adv-x="964" d="M156 663.5q0 135.5 96 231.5t231 96q133 0 229.5 -96t96.5 -231.5t-96.5 -230.5t-229.5 -95q-135 0 -231 95t-96 230.5z" />
<glyph unicode="&#x2026;" horiz-adv-x="1204" d="M111 72q0 39 26.5 66.5t65.5 27.5t66.5 -27.5t27.5 -66.5t-27.5 -65.5t-66.5 -26.5t-65.5 26.5t-26.5 65.5zM506 72q0 39 26.5 66.5t65.5 27.5q41 0 67.5 -27.5t26.5 -66.5t-27.5 -65.5t-66.5 -26.5t-65.5 26.5t-26.5 65.5zM907 72q0 39 27 66.5t65 27.5q41 0 68 -27.5 t27 -66.5t-28 -65.5t-66.5 -26.5t-65.5 26.5t-27 65.5z" />
<glyph unicode="&#x202f;" horiz-adv-x="368" />
<glyph unicode="&#x2039;" horiz-adv-x="729" d="M96 551q0 23 29 51l424 375q27 23 47 22.5t41 -22.5q16 -23 16 -39q0 -20 -28 -49l-381 -338l381 -338q29 -25 28 -49q0 -16 -16 -39q-23 -23 -39 -23t-49 23l-424 375q-29 22 -29 51z" />
<glyph unicode="&#x203a;" horiz-adv-x="729" d="M76 164q0 25 28 49l381 338l-381 338q-29 29 -28 49q0 16 16 39q20 23 41 22.5t47 -22.5l424 -375q29 -29 29 -51q0 -29 -29 -51l-424 -375q-33 -23 -49 -23t-39 23q-16 23 -16 39z" />
<glyph unicode="&#x205f;" horiz-adv-x="460" />
<glyph unicode="&#x20ac;" horiz-adv-x="1218" d="M72 551q0 59 65 59h121q-2 25 -2 80q0 57 6 113h-125q-66 0 -65.5 59.5t65.5 59.5h144q51 225 192 358t332 133q162 0 278 -86q41 -31 41 -61q0 -25 -17 -44.5t-42 -19.5q-20 0 -66 29q-98 61 -198 61q-143 0 -244.5 -99t-144.5 -271h495q66 0 66 -56q0 -63 -66 -63h-516 q-6 -55 -6 -113q0 -55 2 -80h422q66 0 65 -51q0 -68 -65 -67h-408q35 -190 133.5 -291t241.5 -101q129 0 260 78q31 20 54 21q25 0 38 -17.5t13 -40.5q0 -27 -33 -55q-139 -106 -334 -106q-207 0 -337 135t-167 377h-133q-65 0 -65 59z" />
<glyph unicode="&#x2122;" horiz-adv-x="1662" d="M23 1341q0 55 59 56h463q59 0 59 -56q0 -53 -59 -53h-174v-661q0 -59 -57.5 -59.5t-57.5 59.5v661h-174q-59 0 -59 53zM748 627v690q0 82 69 82q45 0 70 -47l225 -400l225 400q29 47 70 47q68 0 68 -82v-690q0 -59 -58 -60q-53 0 -53 60v571l-186 -326q-25 -47 -66 -47 t-68 45l-186 328v-571q0 -59 -55 -59t-55 59z" />
<glyph unicode="&#xe000;" horiz-adv-x="1050" d="M0 1050h1050v-1050h-1050v1050z" />
<glyph unicode="&#xfb01;" horiz-adv-x="1038" d="M31 985q0 59 63 59h115v107q0 201 116.5 293t272.5 92q150 0 262 -78q27 -18 27 -47q0 -25 -16.5 -45t-41.5 -20q-14 0 -38 12q-106 53 -203 53q-121 0 -186.5 -67.5t-65.5 -190.5v-109h487q63 0 64 -61v-926q0 -63 -63.5 -63t-63.5 63v869h-424v-869q0 -63 -63.5 -63 t-63.5 63v869h-115q-63 0 -63 59z" />
<glyph unicode="&#xfb02;" horiz-adv-x="1038" d="M31 985q0 59 63 59h115v103q0 180 104.5 284.5t292.5 104.5q143 0 242 -43q39 -18 39 -61v-1375q0 -63 -63.5 -63t-63.5 63v1332q-82 23 -166 22q-127 0 -192.5 -69.5t-65.5 -198.5v-99h219q63 0 63 -59t-63 -59h-219v-869q0 -63 -63.5 -63t-63.5 63v869h-115 q-63 0 -63 59z" />
<glyph unicode="&#xfb03;" horiz-adv-x="1646" d="M1346 1388.5q0 34.5 25.5 60.5t60.5 26q37 0 61.5 -26t24.5 -60q0 -37 -24.5 -61.5t-61.5 -24.5q-35 0 -60.5 25.5t-25.5 60zM1369 57v932q0 61 63.5 61.5t63.5 -61.5v-932q0 -63 -66 -63q-61 0 -61 63zM639 985q0 59 63 59h115v136q0 356 299 356q61 0 106 -25 q35 -16 35 -53q0 -25 -15.5 -44t-35.5 -19q-10 0 -31 8q-31 12 -65 12q-88 0 -127 -53t-39 -176v-142h174q63 0 63 -59t-63 -59h-174v-869q0 -63 -63.5 -63t-63.5 63v869h-115q-63 0 -63 59zM31 985q0 59 63 59h115v136q0 356 299 356q61 0 106 -25q35 -16 35 -53 q0 -25 -15.5 -44t-35.5 -19q-10 0 -31 8q-31 12 -65 12q-88 0 -127 -53t-39 -176v-142h174q63 0 63 -59t-63 -59h-174v-869q0 -63 -63.5 -63t-63.5 63v869h-115q-63 0 -63 59z" />
<glyph unicode="&#xfb04;" horiz-adv-x="1646" d="M1369 55v1420q0 61 63.5 61t63.5 -61v-1420q0 -61 -63.5 -61t-63.5 61zM639 985q0 59 63 59h115v136q0 356 299 356q61 0 106 -25q35 -16 35 -53q0 -25 -15.5 -44t-35.5 -19q-10 0 -31 8q-31 12 -65 12q-88 0 -127 -53t-39 -176v-142h174q63 0 63 -59t-63 -59h-174v-869 q0 -63 -63.5 -63t-63.5 63v869h-115q-63 0 -63 59zM31 985q0 59 63 59h115v136q0 356 299 356q61 0 106 -25q35 -16 35 -53q0 -25 -15.5 -44t-35.5 -19q-10 0 -31 8q-31 12 -65 12q-88 0 -127 -53t-39 -176v-142h174q63 0 63 -59t-63 -59h-174v-869q0 -63 -63.5 -63 t-63.5 63v869h-115q-63 0 -63 59z" />
</font>
</defs>
</svg>
